<svg width="208" height="40" viewBox="0 0 208 40" fill="none" xmlns="http://www.w3.org/2000/svg">
<g clip-path="url(#clip0)">
<path d="M30.4075 4.01514C30.2558 4.16665 30.18 4.39392 29.9525 4.46968V4.54544L29.8767 4.6212L28.3601 5.75756L12.7393 17.5L13.725 25.5303V25.7576C13.725 25.9848 13.8009 26.1363 13.9525 26.3636V26.4394V26.5151C14.3317 27.0454 14.9383 27.4242 15.6966 27.4242C16.3791 27.4242 17.0615 27.0454 17.3649 26.5151L17.4407 26.3636L30.18 4.39392L30.2558 4.31817L30.4075 4.01514Z" fill="#C5A57F"/>
<path d="M3.18515 0H28.7397C29.4221 0 30.0288 0.378788 30.4079 0.984848C30.7871 1.59091 30.7871 2.34848 30.4079 2.95455V3.0303V3.10606C30.3321 3.25758 30.1804 3.40909 30.0288 3.56061L29.8771 3.71212L23.4316 8.56061L5.38421 0.909091L3.64013 0.151515H3.5643H3.48847C3.26098 0.0757576 3.10932 0 2.88184 0H3.18515Z" fill="#C5A57F"/>
<path d="M13.0428 25.606L12.9669 25.4545L0.303419 3.63633L0.22759 3.48482C-0.0757275 2.87876 -0.0757275 2.12118 0.303419 1.51512C0.682566 0.909061 1.2892 0.530273 1.97167 0.530273H2.0475H2.12332C2.35081 0.530273 2.50247 0.606031 2.72996 0.681789L2.95745 0.757546L10.3887 3.93936L12.7394 23.2575L12.9669 25.0757V25.1515V25.2272C12.9669 25.4545 13.0428 25.606 13.1944 25.8333L13.0428 25.606Z" fill="#C5A57F"/>
<path d="M42.8435 6.59089V23.106H39.1279V6.59089H34.5781V3.33331H47.3933V6.59089H42.8435Z" fill="#C5A57F"/>
<path d="M56.6444 15.9848C55.962 15.9848 55.2795 15.9091 54.8245 15.8333V23.106H51.1089V4.39392C52.6255 3.7121 54.5212 3.33331 56.7961 3.33331C61.6492 3.33331 64.379 5.83331 64.379 9.69695C64.379 13.3333 61.725 15.9848 56.6444 15.9848ZM56.8719 6.28786C56.1136 6.28786 55.3553 6.43937 54.9004 6.59089V12.8788C55.2795 12.9545 55.8861 13.0303 56.4928 13.0303C59.1468 13.0303 60.5876 11.7424 60.5876 9.69695C60.5876 7.34846 59.2985 6.28786 56.8719 6.28786Z" fill="#C5A57F"/>
<path d="M73.4029 23.1818C71.5072 23.1818 69.2323 22.7273 68.019 22.1969V4.31816C69.3081 3.7121 71.2797 3.33331 73.3271 3.33331C77.7252 3.33331 80.0001 5.37877 80.0001 8.33331C80.0001 10.8333 78.256 12.4242 76.7394 12.803V12.8788C78.3318 13.2576 80.6826 14.6969 80.6826 17.803C80.6826 21.1363 78.0285 23.1818 73.4029 23.1818ZM73.3271 5.15149C72.1138 5.15149 70.9006 5.37877 70.2181 5.60604V12.1212H73.0238C74.8437 12.1212 75.602 11.9697 76.5119 11.2879C77.2702 10.7576 77.801 9.69695 77.801 8.48483C77.801 6.36362 76.2086 5.15149 73.3271 5.15149ZM76.5878 14.4697C75.6778 14.0151 74.9195 13.7879 73.1754 13.7879H70.2181V20.8333C70.9764 21.0606 72.2655 21.2879 73.4029 21.2879C76.5878 21.2879 78.4077 20 78.4077 17.5757C78.4077 16.2121 77.801 15.0757 76.5878 14.4697Z" fill="#C5A57F"/>
<path d="M88.7965 23.1818C84.8534 23.1818 82.8818 21.5151 82.8818 18.7879C82.8818 14.6969 87.2799 14.0909 91.6022 13.8636V12.803C91.6022 10.6818 90.1615 9.99998 88.1899 9.99998C86.825 9.99998 85.2325 10.4545 84.2468 10.9091L83.6401 9.31816C84.7017 8.78786 86.5216 8.33331 88.3416 8.33331C91.5264 8.33331 93.6496 9.62119 93.6496 13.0303V22.2727C92.7397 22.7272 90.6923 23.1818 88.7965 23.1818ZM91.6022 15.3788C88.4174 15.5303 84.9292 15.7576 84.9292 18.7121C84.9292 20.3788 86.2183 21.5151 88.7207 21.5151C89.7823 21.5151 91.1472 21.2879 91.6022 21.0606V15.3788Z" fill="#C5A57F"/>
<path d="M104.72 23.1818V13.3333C104.72 11.3636 103.583 10.1515 101.232 10.1515C99.9431 10.1515 98.8815 10.3788 98.1991 10.6818V23.1818H96V9.31818C97.3649 8.71211 99.1848 8.25757 101.308 8.25757C105.1 8.25757 106.995 10.0758 106.995 13.1061V23.1061H104.72" fill="#C5A57F"/>
<path d="M118.067 23.1818L111.318 15.7576V23.1818H109.119V3.33331H111.318V15.3788L118.067 8.25755H120.721L113.744 15.606L120.721 23.1818H118.067Z" fill="#C5A57F"/>
<path d="M56.4169 30.2273L53.3838 36.2879C53.2321 36.5152 53.0805 36.7424 52.9288 36.8182C52.7013 36.8939 52.5496 36.9697 52.3222 36.9697C51.7913 36.9697 51.5639 36.7424 51.5639 36.2879L51.1089 30.303C51.1089 30.303 51.1089 30.303 51.1089 30.2273C51.1089 30.1515 51.1089 30.1515 51.1847 30.0758C51.2605 30.0758 51.2605 30 51.3364 30H51.8672C51.8672 30 51.943 30 51.943 30.0758L52.0188 30.1515L52.398 36.0606C52.398 36.2121 52.4738 36.2879 52.5496 36.2879C52.6255 36.2879 52.7013 36.2121 52.7771 36.0606L55.6586 30.1515C55.7345 30.0758 55.7345 30 55.8103 30H56.3411C56.4169 30.0758 56.4169 30.0758 56.4169 30.2273Z" fill="#C5A57F"/>
<path d="M56.7204 36.6667C56.7204 36.7424 56.6445 36.7424 56.6445 36.8182C56.5687 36.8182 56.5687 36.8939 56.4929 36.8939H56.0379C55.9621 36.8939 55.9621 36.8939 55.8862 36.8182C55.8862 36.8182 55.8104 36.7424 55.8862 36.6667L56.872 31.9697C56.872 31.8939 56.9479 31.8939 56.9479 31.8182C57.0237 31.8182 57.0237 31.7424 57.0995 31.7424H57.5545C57.6303 31.7424 57.6303 31.7424 57.7062 31.8182C57.7062 31.8182 57.7062 31.8939 57.7062 31.9697L56.7204 36.6667ZM58.0853 31.0606C58.0853 31.1364 58.0095 31.1364 58.0095 31.1364H57.4787H57.4028C57.4028 31.1364 57.4028 31.1364 57.327 31.0606C57.327 31.0606 57.327 30.9848 57.2512 30.9848L56.4929 29.8485V29.7727C56.4929 29.697 56.5687 29.697 56.5687 29.697H57.1754C57.2512 29.697 57.327 29.7727 57.4028 29.8485L58.0853 30.9848C58.0853 30.9848 58.0853 31.0606 58.0853 31.0606Z" fill="#C5A57F"/>
<path d="M61.8766 36.9697C61.5733 36.9697 61.27 36.8939 61.0425 36.8182C60.815 36.7424 60.6633 36.5909 60.5117 36.3636C60.36 36.1364 60.2842 35.9091 60.2842 35.6818C60.2842 35.3788 60.2842 35.0758 60.36 34.7727L60.5117 34.0909C60.5875 33.6364 60.7392 33.2576 60.9666 32.8788C61.1941 32.5758 61.4216 32.2727 61.8008 32.1212C62.1041 31.9697 62.4832 31.8182 62.9382 31.8182C63.1657 31.8182 63.3932 31.8182 63.6207 31.8939C63.8481 31.9697 63.9998 32.0454 64.0756 32.0454C64.1515 32.0454 64.1515 32.1212 64.1515 32.1212C64.1515 32.1212 64.1515 32.197 64.1515 32.2727V32.5758C64.1515 32.7273 64.0756 32.7273 63.924 32.7273C63.5448 32.5758 63.1657 32.5 62.8624 32.5C62.1041 32.5 61.5733 33.0303 61.4216 34.0151L61.27 34.697C61.1941 35.2273 61.1941 35.6061 61.3458 35.8333C61.4974 36.0606 61.7249 36.2121 62.1041 36.2121C62.4832 36.2121 62.8624 36.1364 63.2415 35.9848C63.3932 35.9091 63.469 35.9848 63.3932 36.1364L63.3173 36.4394C63.3173 36.5151 63.3173 36.5151 63.2415 36.5909C63.2415 36.5909 63.1657 36.6667 63.0899 36.6667C62.9382 36.7424 62.7865 36.8182 62.5591 36.8182C62.3316 36.8939 62.1041 36.9697 61.8766 36.9697Z" fill="#C5A57F"/>
<path d="M68.0187 36.6667C68.0187 36.7424 67.9428 36.7424 67.9428 36.8182C67.867 36.8182 67.867 36.894 67.7912 36.894H67.3362C67.2604 36.894 67.2604 36.8939 67.1845 36.8182C67.1845 36.8182 67.1845 36.7424 67.1845 36.6667L67.7912 33.6364C67.867 33.1818 67.867 32.8788 67.7154 32.7273C67.5637 32.5758 67.3362 32.4243 67.0329 32.4243C66.8812 32.4243 66.6537 32.4243 66.4262 32.5C66.1988 32.5758 65.9713 32.5758 65.7438 32.7273L64.9097 36.7424C64.9097 36.8182 64.8338 36.8182 64.8338 36.894C64.758 36.9697 64.758 36.9697 64.6822 36.9697H64.2272C64.1514 36.9697 64.1514 36.9697 64.1514 36.894C64.1514 36.894 64.1514 36.8182 64.1514 36.7424L65.5163 30.1515C65.5163 30.0758 65.5163 30.0758 65.5921 30C65.668 30 65.668 29.9243 65.7438 29.9243H66.1988C66.2746 29.9243 66.2746 29.9243 66.3504 30C66.3504 30 66.3504 30.0758 66.3504 30.1515L65.9713 32.0455C66.1988 31.9697 66.4263 31.894 66.7296 31.8182C66.9571 31.7424 67.2604 31.7424 67.4879 31.7424C67.7912 31.7424 68.0945 31.8182 68.322 31.9697C68.5495 32.1212 68.7011 32.3485 68.777 32.5758C68.8528 32.8788 68.8528 33.2576 68.777 33.6364L68.0187 36.6667Z" fill="#C5A57F"/>
<path d="M69.3838 35L70.0663 31.9697C70.0663 31.894 70.0663 31.894 70.1421 31.8182C70.2179 31.8182 70.2179 31.7425 70.2938 31.7425H70.7487C70.8246 31.7425 70.8246 31.7425 70.9004 31.8182C70.9004 31.8182 70.9004 31.894 70.9004 31.9697L70.2938 35C70.2179 35.4546 70.2179 35.7576 70.3696 35.9849C70.5212 36.1364 70.7487 36.2879 71.1279 36.2879C71.2795 36.2879 71.4312 36.2879 71.7345 36.2122C71.962 36.2122 72.1895 36.1364 72.417 36.0606L73.3269 31.9697C73.3269 31.894 73.3269 31.894 73.4028 31.8182C73.4786 31.8182 73.4786 31.7425 73.5544 31.7425H74.0094C74.0852 31.7425 74.0852 31.7425 74.1611 31.8182C74.1611 31.8182 74.1611 31.894 74.1611 31.9697L73.2511 36.4394C73.2511 36.5909 73.1753 36.5909 73.0236 36.6667C72.2653 36.8182 71.5829 36.9697 71.052 36.9697C70.5971 36.9697 70.2179 36.894 69.9904 36.7425C69.7629 36.5909 69.6113 36.3637 69.5355 36.0606C69.2321 35.8334 69.2321 35.4546 69.3838 35ZM73.8577 29.7728C73.8577 29.7728 73.8577 29.8485 73.8577 29.7728L72.4928 30.9849C72.417 31.0606 72.417 31.0606 72.3412 31.1364H72.2653H71.7345C71.6587 31.1364 71.6587 31.1364 71.6587 31.0606C71.6587 31.0606 71.6587 30.9849 71.7345 30.9849L72.872 29.8485C72.9478 29.7728 72.9478 29.7728 73.0236 29.7728C73.0236 29.7728 73.0994 29.7728 73.1753 29.7728H73.7819C73.8577 29.697 73.8577 29.697 73.8577 29.7728Z" fill="#C5A57F"/>
<path d="M78.4074 33.7121L77.8008 36.7425C77.8008 36.8182 77.7249 36.8182 77.7249 36.894C77.6491 36.894 77.6491 36.9697 77.5733 36.9697H77.1183C77.0425 36.9697 77.0425 36.9697 76.9666 36.894C76.9666 36.894 76.9666 36.8182 76.9666 36.7425L77.5733 33.7121C77.6491 33.4091 77.6491 33.1818 77.6491 32.9546C77.6491 32.8031 77.4974 32.6515 77.4216 32.5758C77.2699 32.5 77.1183 32.4243 76.815 32.4243C76.4358 32.4243 76.0567 32.5 75.6017 32.5758L74.7676 36.6667C74.7676 36.7425 74.6917 36.7424 74.6917 36.8182C74.6159 36.894 74.6159 36.894 74.5401 36.894H74.0851C74.0093 36.894 74.0093 36.894 74.0093 36.8182C74.0093 36.8182 74.0093 36.7425 74.0093 36.6667L74.9192 32.197C74.9192 32.1212 74.9951 32.0455 75.1467 31.9697C75.905 31.7424 76.5875 31.6667 77.1183 31.6667C77.4974 31.6667 77.7249 31.7424 77.9524 31.8182C78.1799 31.894 78.3316 32.0455 78.4074 32.197C78.4832 32.3485 78.5591 32.5758 78.5591 32.8031C78.4832 33.1061 78.4832 33.3334 78.4074 33.7121Z" fill="#C5A57F"/>
<path d="M80.303 38.0303C80.6063 38.0303 80.8338 38.0303 80.9855 37.9545C81.1371 37.8788 81.2888 37.803 81.4405 37.5758C81.5163 37.4242 81.6679 37.197 81.6679 36.8939V36.8182C81.5163 36.8182 81.3646 36.8939 81.1371 36.8939C80.9097 36.8939 80.758 36.9697 80.6063 36.9697C79.2414 36.9697 78.7106 36.2121 79.0139 34.697L79.1656 34.0152C79.2414 33.4849 79.4689 33.1061 79.6964 32.7273C79.9239 32.4242 80.2272 32.1212 80.5305 31.9697C80.9097 31.8182 81.2888 31.7424 81.7438 31.7424C82.1988 31.7424 82.7296 31.8182 83.3362 31.9697C83.412 31.9697 83.4879 31.9697 83.4879 32.0455C83.4879 32.0455 83.4879 32.1212 83.4879 32.197L82.5021 36.8939C82.3504 37.5758 82.1229 38.0303 81.7438 38.3333C81.3646 38.6364 80.8338 38.7121 80.1514 38.7121C79.848 38.7121 79.5447 38.7121 79.3172 38.6364C79.0897 38.5606 78.8623 38.4849 78.7106 38.4091C78.6348 38.3333 78.6348 38.2576 78.6348 38.1818L78.7106 37.8788C78.7106 37.803 78.7106 37.803 78.7864 37.7273C78.8623 37.7273 78.8623 37.7273 78.9381 37.7273C79.2414 37.8788 79.4689 37.9545 79.6206 37.9545C79.7722 38.0303 79.9997 38.0303 80.303 38.0303ZM81.8196 36.1364L82.5779 32.5C82.1988 32.4242 81.8954 32.4242 81.5921 32.4242C81.3646 32.4242 81.1371 32.4242 80.9855 32.5C80.8338 32.5758 80.6822 32.6515 80.5305 32.803C80.3788 32.9546 80.303 33.1061 80.2272 33.2576C80.1514 33.4849 80.0755 33.7121 79.9997 34.0152L79.848 34.697C79.7722 35.0758 79.7722 35.3788 79.7722 35.6061C79.848 35.8333 79.9239 35.9849 80.0755 36.1364C80.2272 36.2121 80.4547 36.2879 80.758 36.2879C80.9097 36.2879 81.0613 36.2879 81.2888 36.2879C81.5163 36.2121 81.7438 36.2121 81.8196 36.1364Z" fill="#C5A57F"/>
<path d="M88.6444 36.7425C88.6444 36.8182 88.5685 36.894 88.4169 36.894C88.1894 36.894 87.9619 36.9697 87.8102 36.9697C87.3553 36.9697 87.0519 36.894 86.9003 36.7425C86.7486 36.591 86.7486 36.2122 86.8245 35.7576L87.5069 32.5758L86.597 32.5C86.4453 32.5 86.4453 32.4243 86.4453 32.3485L86.5211 32.1213C86.5211 32.0455 86.597 31.9697 86.7486 31.9697H87.6586L87.8861 31.0606C87.8861 30.9849 87.9619 30.9091 88.1136 30.9091L88.6444 30.8334C88.7202 30.8334 88.7202 30.8334 88.7202 30.9091V30.9849L88.4927 31.9697H89.4785C89.5543 31.9697 89.5543 31.9697 89.6301 32.0455C89.6301 32.0455 89.706 32.1213 89.6301 32.197L89.5543 32.5C89.5543 32.5758 89.5543 32.5758 89.4785 32.6516C89.4026 32.6516 89.4026 32.7273 89.3268 32.7273H88.341L87.6586 35.9091C87.5827 36.1364 87.5827 36.2879 87.6586 36.3637C87.7344 36.4394 87.8102 36.4394 88.0377 36.4394H88.5685C88.7202 36.4394 88.7202 36.5152 88.7202 36.591L88.6444 36.7425Z" fill="#C5A57F"/>
<path d="M93.7252 34.697C93.5735 35.3788 93.2702 35.9091 92.8152 36.3636C92.3602 36.7424 91.8294 36.9697 91.147 36.9697C90.4645 36.9697 90.0095 36.7424 89.782 36.3636C89.4787 35.9848 89.4787 35.3788 89.6304 34.697L89.782 34.0151C89.9337 33.3333 90.237 32.803 90.692 32.3485C91.147 31.9697 91.6778 31.7424 92.3602 31.7424C93.0427 31.7424 93.4977 31.9697 93.7252 32.3485C94.0285 32.7273 94.0285 33.3333 93.8768 34.0151L93.7252 34.697ZM92.891 34.697L93.0427 34.0151C93.1185 33.7121 93.1185 33.4091 93.1185 33.1818C93.0427 32.9545 92.9669 32.803 92.8152 32.6515C92.6636 32.5 92.4361 32.5 92.1327 32.5C91.6778 32.5 91.3745 32.6515 91.147 32.8788C90.9195 33.1818 90.692 33.5606 90.6162 34.0151L90.4645 34.697C90.237 35.7576 90.5403 36.2121 91.3745 36.2121C91.8294 36.2121 92.1328 36.0606 92.3602 35.8333C92.5877 35.6061 92.8152 35.2273 92.891 34.697ZM93.9527 31.0606C93.9527 31.1364 93.8768 31.1364 93.8768 31.1364H93.4218C93.346 31.1364 93.346 31.1364 93.346 31.1364C93.346 31.1364 93.2702 31.0606 93.2702 30.9848L92.7394 30.0757L91.7536 30.9848C91.6778 31.0606 91.6778 31.0606 91.6019 31.0606H91.5261H90.9953C90.9195 31.0606 90.9195 31.0606 90.9195 30.9848C90.9195 30.9848 90.9195 30.9091 90.9953 30.9091L92.1327 29.7727C92.2086 29.697 92.2086 29.697 92.2844 29.697C92.2844 29.697 92.3602 29.697 92.4361 29.697H93.1944C93.2702 29.697 93.346 29.7727 93.4218 29.8485L94.0285 30.9848C93.9527 30.9848 93.9527 31.0606 93.9527 31.0606Z" fill="#C5A57F"/>
<path d="M95.0143 36.6667C95.0143 36.7425 94.9385 36.7424 94.9385 36.8182C94.8626 36.8182 94.8627 36.894 94.7868 36.894H94.3318C94.256 36.894 94.256 36.894 94.1802 36.8182C94.1802 36.8182 94.1044 36.7425 94.1802 36.6667L95.166 31.9697C95.166 31.894 95.166 31.894 95.2418 31.8182C95.3176 31.8182 95.3176 31.7425 95.3935 31.7425H95.8484C95.9243 31.7425 95.9243 31.7424 96.0001 31.8182C96.0001 31.8182 96.0001 31.894 96.0001 31.9697L95.0143 36.6667ZM96.3034 30.8334C96.3034 30.9091 96.3034 30.9091 96.2276 30.9849C96.1517 30.9849 96.1517 31.0606 96.0759 31.0606H95.6209C95.5451 31.0606 95.5451 31.0606 95.4693 30.9849C95.4693 30.9849 95.3935 30.9091 95.4693 30.8334L95.6209 30.0758C95.6209 30 95.6209 30 95.6968 29.9243C95.7726 29.9243 95.7726 29.8485 95.8484 29.8485H96.3034C96.3792 29.8485 96.3792 29.8485 96.4551 29.9243C96.4551 29.9243 96.4551 30 96.4551 30.0758L96.3034 30.8334Z" fill="#C5A57F"/>
<path d="M102.294 36.6667C102.294 36.7424 102.218 36.7424 102.218 36.8182C102.142 36.8182 102.142 36.894 102.066 36.894H101.611C101.536 36.894 101.536 36.8939 101.46 36.8182C101.46 36.8182 101.46 36.7424 101.46 36.6667L102.066 33.6364C102.142 33.1818 102.142 32.8788 101.991 32.7273C101.839 32.5758 101.611 32.4243 101.308 32.4243C101.156 32.4243 100.929 32.4243 100.702 32.5C100.474 32.5758 100.247 32.5758 100.019 32.7273L99.1849 36.7424C99.1849 36.8182 99.1091 36.8182 99.1091 36.894C99.0333 36.9697 99.0333 36.9697 98.9574 36.9697H98.5783C98.5024 36.9697 98.5024 36.9697 98.5024 36.894C98.5024 36.894 98.5024 36.8182 98.5024 36.7424L99.8674 30.1515C99.8674 30.0758 99.8674 30.0758 99.9432 30C100.019 30 100.019 29.9243 100.095 29.9243H100.55C100.626 29.9243 100.626 29.9243 100.702 30C100.702 30 100.702 30.0758 100.702 30.1515L100.322 32.0455C100.55 31.9697 100.777 31.894 101.081 31.8182C101.308 31.7424 101.611 31.7424 101.839 31.7424C102.142 31.7424 102.446 31.8182 102.673 31.9697C102.901 32.1212 103.052 32.3485 103.128 32.5758C103.204 32.8788 103.204 33.2576 103.128 33.6364L102.294 36.6667Z" fill="#C5A57F"/>
<path d="M104.19 36.6667C104.19 36.7425 104.114 36.7424 104.114 36.8182C104.038 36.8182 104.038 36.894 103.962 36.894H103.507C103.431 36.894 103.431 36.894 103.355 36.8182C103.355 36.8182 103.28 36.7425 103.355 36.6667L104.341 31.9697C104.341 31.894 104.341 31.894 104.417 31.8182C104.493 31.8182 104.493 31.7425 104.569 31.7425H105.024C105.1 31.7425 105.1 31.7424 105.175 31.8182C105.175 31.8182 105.175 31.894 105.175 31.9697L104.19 36.6667ZM105.479 30.8334C105.479 30.9091 105.479 30.9091 105.403 30.9849C105.327 30.9849 105.327 31.0606 105.251 31.0606H104.796C104.72 31.0606 104.72 31.0606 104.645 30.9849C104.645 30.9849 104.569 30.9091 104.645 30.8334L104.796 30.0758C104.796 30 104.872 30 104.872 29.9243C104.948 29.9243 104.948 29.8485 105.024 29.8485H105.479C105.555 29.8485 105.555 29.8485 105.63 29.9243C105.63 29.9243 105.63 30 105.63 30.0758L105.479 30.8334Z" fill="#C5A57F"/>
<path d="M107.374 36.2121C107.602 36.2121 107.754 36.2121 107.981 36.1364C108.209 36.0606 108.36 36.0606 108.588 35.9849C108.815 35.9091 108.967 35.8333 109.043 35.8333C109.118 35.8333 109.194 35.8333 109.194 35.8333C109.194 35.8333 109.27 35.9091 109.194 35.9849V36.3636C109.194 36.4394 109.118 36.5152 109.043 36.5152C108.436 36.8182 107.829 36.9697 107.223 36.9697C106.844 36.9697 106.54 36.8939 106.237 36.7424C105.934 36.5909 105.782 36.3636 105.63 36.0606C105.479 35.7576 105.479 35.303 105.63 34.7727L105.782 33.9394C105.934 33.2576 106.237 32.7273 106.692 32.3485C107.147 31.9697 107.678 31.7424 108.36 31.7424C108.815 31.7424 109.118 31.8182 109.422 31.9697C109.725 32.1212 109.877 32.4243 109.953 32.7273C110.028 33.0303 110.028 33.4091 109.953 33.8636L109.877 34.3939C109.877 34.5455 109.801 34.6212 109.649 34.6212H106.54V34.7727C106.389 35.303 106.464 35.6818 106.616 35.9091C106.616 36.1364 106.919 36.2121 107.374 36.2121ZM109.043 34.0152V33.9394C109.118 33.6364 109.118 33.3333 109.118 33.1061C109.043 32.8788 108.967 32.7273 108.815 32.6515C108.664 32.5758 108.436 32.5 108.133 32.5C107.299 32.5 106.768 32.9546 106.616 33.9394V34.0152H109.043V34.0152ZM109.953 31.2121C109.953 31.2879 109.877 31.2879 109.877 31.2879H109.422C109.346 31.2879 109.346 31.2879 109.346 31.2879L109.27 31.2121L108.739 30.303L107.754 31.2121C107.678 31.2879 107.678 31.2879 107.602 31.2879H107.526H106.919C106.844 31.2879 106.844 31.2879 106.844 31.2121C106.844 31.1364 106.844 31.1364 106.919 31.1364L108.057 30C108.133 29.9242 108.133 29.9243 108.209 29.8485C108.209 29.8485 108.284 29.8485 108.36 29.8485H109.118C109.194 29.8485 109.27 29.9242 109.346 30L109.953 31.1364V31.2121ZM110.408 28.3333C110.256 28.3333 110.18 28.3333 110.104 28.3333C110.028 28.3333 109.877 28.4091 109.725 28.4091C109.573 28.4849 109.498 28.4091 109.498 28.2576L109.573 28.1061C109.573 28.0303 109.573 28.0303 109.649 28.0303L109.725 27.9546C109.801 27.9546 109.953 27.8788 110.104 27.8788C110.256 27.8788 110.408 27.803 110.559 27.803C110.863 27.803 111.014 27.8788 111.166 27.9546C111.318 28.0303 111.393 28.2576 111.318 28.4849V28.5606C111.318 28.6364 111.242 28.7121 111.242 28.7879C111.242 28.8636 111.166 28.9394 111.09 29.0152C111.014 29.0909 110.938 29.1667 110.787 29.3182L110.559 29.5455C110.483 29.6212 110.408 29.697 110.408 29.697C110.408 29.697 110.408 29.7727 110.332 29.7727C110.332 29.7727 110.332 29.8485 110.256 29.9243L110.18 30.0758C110.18 30.1515 110.18 30.1515 110.104 30.2273C110.028 30.2273 110.028 30.303 109.953 30.303H109.801C109.725 30.303 109.725 30.303 109.649 30.2273C109.649 30.1515 109.573 30.1515 109.649 30.0758L109.725 29.9243C109.725 29.8485 109.801 29.7727 109.801 29.697C109.801 29.6212 109.877 29.5455 109.953 29.4697C110.028 29.3939 110.104 29.3182 110.18 29.2424L110.408 29.0152C110.483 28.9394 110.559 28.8636 110.635 28.7879C110.711 28.7121 110.711 28.6364 110.711 28.6364V28.5606C110.559 28.4091 110.483 28.3333 110.408 28.3333Z" fill="#C5A57F"/>
<path d="M110.483 35L111.166 31.9697C111.166 31.8939 111.166 31.8939 111.241 31.8182C111.317 31.8182 111.317 31.7424 111.393 31.7424H111.848C111.924 31.7424 111.924 31.7424 112 31.8182C112 31.8182 112.076 31.8939 112 31.9697L111.393 35C111.317 35.4546 111.317 35.7576 111.469 35.9849C111.621 36.1364 111.848 36.2879 112.227 36.2879C112.379 36.2879 112.531 36.2879 112.834 36.2121C113.061 36.2121 113.289 36.1364 113.44 36.0606L114.35 31.9697C114.35 31.8939 114.35 31.8939 114.426 31.8182C114.502 31.8182 114.502 31.7424 114.578 31.7424H115.033C115.109 31.7424 115.109 31.7424 115.109 31.8182C115.109 31.8182 115.109 31.8939 115.109 31.9697L114.199 36.4394C114.199 36.5909 114.123 36.5909 113.971 36.6667C113.213 36.8182 112.531 36.9697 112 36.9697C111.545 36.9697 111.166 36.8939 110.938 36.7424C110.711 36.5909 110.559 36.3636 110.483 36.0606C110.407 35.8333 110.407 35.4546 110.483 35Z" fill="#C5A57F"/>
<path d="M121.706 34.697C121.554 35.3788 121.251 35.9849 120.872 36.3636C120.417 36.7424 119.886 36.9697 119.204 36.9697C118.597 36.9697 118.066 36.8939 117.535 36.8182C117.46 36.8182 117.384 36.7424 117.384 36.7424C117.384 36.7424 117.384 36.6667 117.384 36.5909L118.749 30.1515C118.749 30.0758 118.825 30.0758 118.825 30C118.9 30 118.9 29.9243 118.976 29.9243H119.431C119.507 29.9243 119.507 29.9243 119.507 30C119.507 30 119.507 30.0758 119.507 30.1515L119.128 31.894C119.28 31.894 119.507 31.8182 119.659 31.8182C119.886 31.8182 120.038 31.8182 120.189 31.8182C120.493 31.8182 120.796 31.894 121.024 31.9697C121.251 32.0455 121.403 32.197 121.554 32.4243C121.706 32.6515 121.782 32.8788 121.782 33.1061C121.782 33.4091 121.782 33.7121 121.706 34.0909V34.697ZM120.872 34.697L121.024 34.0152C121.099 33.4849 121.099 33.1061 121.024 32.8788C120.872 32.6515 120.644 32.5 120.189 32.5C119.734 32.5 119.355 32.5 119.128 32.5758L118.37 36.2121C118.825 36.2879 119.204 36.2879 119.431 36.2879C119.886 36.2879 120.189 36.1364 120.417 35.9091C120.569 35.6061 120.72 35.2273 120.872 34.697Z" fill="#C5A57F"/>
<path d="M125.725 36.5151C125.725 36.5909 125.649 36.6667 125.573 36.7424C125.346 36.8182 125.042 36.8939 124.815 36.8939C124.587 36.8939 124.284 36.9697 123.981 36.9697C123.298 36.9697 122.768 36.8182 122.54 36.5909C122.313 36.3636 122.237 35.9848 122.313 35.4545V35.3788C122.388 35 122.54 34.7727 122.692 34.5454C122.919 34.3182 123.147 34.1667 123.526 34.0909C123.905 34.0151 124.284 33.9394 124.891 33.9394H125.573L125.649 33.5606C125.725 33.1818 125.725 32.8788 125.573 32.7273C125.422 32.5758 125.194 32.5 124.891 32.5C124.587 32.5 124.36 32.5 124.133 32.5758C123.905 32.5758 123.678 32.6515 123.374 32.7273C123.298 32.7273 123.223 32.7273 123.223 32.7273L123.147 32.6515L123.223 32.2727C123.223 32.197 123.298 32.1212 123.374 32.1212C123.526 32.0455 123.753 31.9697 124.057 31.8939C124.36 31.8182 124.663 31.8182 124.967 31.8182C126.18 31.8182 126.635 32.4242 126.407 33.5606L125.725 36.5151ZM124.967 36.2121L125.346 34.3939H124.663C124.36 34.3939 124.133 34.3939 123.981 34.4697C123.829 34.4697 123.678 34.5454 123.526 34.6212C123.374 34.697 123.298 34.7727 123.223 34.9242C123.147 35 123.071 35.1515 123.071 35.3788V35.4545C122.995 35.6818 122.995 35.8333 123.071 35.9848C123.071 36.1364 123.223 36.2121 123.374 36.2879C123.526 36.3636 123.753 36.3636 124.057 36.3636C124.208 36.3636 124.284 36.3636 124.436 36.3636C124.587 36.3636 124.663 36.3636 124.739 36.3636C124.815 36.2879 124.891 36.2879 124.967 36.2121ZM123.905 38.1818C123.905 38.2576 123.905 38.2576 123.829 38.3333C123.753 38.3333 123.753 38.4091 123.678 38.4091H123.298C123.223 38.4091 123.223 38.4091 123.147 38.3333C123.147 38.3333 123.071 38.2576 123.147 38.1818L123.298 37.4242C123.298 37.3485 123.298 37.3485 123.374 37.2727C123.45 37.197 123.45 37.197 123.526 37.197H123.905C123.981 37.197 123.981 37.197 124.057 37.2727C124.057 37.3485 124.057 37.3485 124.057 37.4242L123.905 38.1818Z" fill="#C5A57F"/>
<path d="M131.26 33.7121L130.654 36.7425C130.654 36.8182 130.578 36.8182 130.578 36.894C130.502 36.894 130.502 36.9697 130.426 36.9697H129.971C129.895 36.9697 129.895 36.9697 129.82 36.894C129.82 36.894 129.82 36.8182 129.82 36.7425L130.426 33.7121C130.502 33.4091 130.502 33.1818 130.502 32.9546C130.502 32.8031 130.35 32.6515 130.275 32.5758C130.123 32.5 129.971 32.4243 129.668 32.4243C129.289 32.4243 128.91 32.5 128.455 32.5758L127.621 36.6667C127.621 36.7425 127.545 36.7424 127.545 36.8182C127.469 36.894 127.469 36.894 127.393 36.894H126.938C126.862 36.894 126.862 36.894 126.862 36.8182C126.862 36.8182 126.862 36.7425 126.862 36.6667L127.772 32.197C127.772 32.1212 127.848 32.0455 128 31.9697C128.758 31.7424 129.44 31.6667 129.971 31.6667C130.35 31.6667 130.578 31.7424 130.805 31.8182C131.033 31.894 131.185 32.0455 131.26 32.197C131.336 32.3485 131.412 32.5758 131.412 32.8031C131.336 33.1061 131.26 33.3334 131.26 33.7121Z" fill="#C5A57F"/>
<path d="M139.602 3.33331H138.692V36.9697H139.602V3.33331Z" fill="#C5A57F"/>
<path d="M155.147 3.7121C154.464 3.48483 153.63 3.33331 152.72 3.33331C151.734 3.33331 150.824 3.40907 150.066 3.48483C149.687 3.56059 149.459 3.78786 149.459 4.16665V15.0757C149.459 15.2273 149.535 15.3788 149.611 15.4545C149.687 15.5303 149.839 15.606 149.99 15.606H150.824C150.976 15.606 151.128 15.5303 151.204 15.4545C151.279 15.3788 151.355 15.2273 151.355 15.0757V10.9848C151.886 11.0606 152.341 11.0606 152.644 11.0606C154.161 11.0606 155.298 10.7576 156.132 10.1515C156.891 9.54543 157.346 8.56059 157.346 7.34846V7.04543C157.346 6.2121 157.118 5.45453 156.739 4.92422C156.436 4.31816 155.905 3.93937 155.147 3.7121ZM154.388 9.09089C154.009 9.2424 153.403 9.31816 152.72 9.31816C152.644 9.31816 152.493 9.31816 152.341 9.31816C152.189 9.31816 152.038 9.31816 151.886 9.31816C151.734 9.31816 151.583 9.31816 151.507 9.31816V5.15149C151.962 5.15149 152.341 5.07574 152.796 5.07574C153.782 5.07574 154.464 5.22725 154.919 5.53028C155.298 5.83331 155.526 6.28786 155.526 6.96968V7.19695C155.526 7.72725 155.45 8.10604 155.298 8.40907C155.071 8.7121 154.768 8.93937 154.388 9.09089Z" fill="#C5A57F"/>
<path d="M164.17 10.3788C164.853 10.1515 165.384 9.77271 165.763 9.31816C166.218 8.7121 166.521 7.95452 166.521 7.12119V6.96968C166.521 6.13634 166.294 5.37877 165.915 4.84846C165.535 4.31816 164.929 3.93937 164.246 3.63634C163.564 3.40907 162.806 3.33331 161.896 3.33331C161.668 3.33331 161.441 3.33331 161.061 3.33331C160.682 3.33331 160.303 3.33331 160 3.40907C159.621 3.40907 159.317 3.48483 159.166 3.48483C158.787 3.56059 158.559 3.7121 158.559 4.09089V15.0757C158.559 15.2273 158.635 15.3788 158.711 15.4545C158.787 15.5303 158.938 15.606 159.09 15.606H159.924C160.076 15.606 160.227 15.5303 160.303 15.4545C160.379 15.3788 160.455 15.2273 160.455 15.0757V10.7576C161.137 10.7576 161.668 10.7576 161.896 10.7576H162.123L164.853 15.303C164.929 15.4545 165.005 15.5303 165.156 15.5303C165.232 15.606 165.384 15.606 165.535 15.606H166.521C166.824 15.606 166.976 15.4545 166.976 15.1515C166.976 15.0757 166.976 15 166.9 14.8485L164.17 10.3788ZM164.322 8.25756C164.095 8.56059 163.867 8.7121 163.488 8.86362C163.109 9.01513 162.578 9.01513 161.896 9.01513C161.668 9.01513 161.213 9.01513 160.455 9.01513V5.22725C160.758 5.22725 161.213 5.22725 161.896 5.22725C162.578 5.22725 163.109 5.30301 163.488 5.37877C163.867 5.53028 164.17 5.6818 164.322 5.90907C164.474 6.13634 164.625 6.51513 164.625 6.96968V7.12119C164.625 7.57574 164.474 7.95452 164.322 8.25756Z" fill="#C5A57F"/>
<path d="M174.635 3.40907C174.332 3.40907 173.877 3.33331 173.194 3.33331C172.587 3.33331 171.981 3.33331 171.526 3.33331C170.313 3.33331 169.478 3.56059 168.872 4.09089C168.265 4.62119 167.962 5.45453 167.962 6.51513V12.5757C167.962 13.3333 168.114 13.9394 168.341 14.3939C168.644 14.8485 169.024 15.2273 169.554 15.4545C170.085 15.6818 170.768 15.7576 171.526 15.7576C173.118 15.7576 174.104 15.7576 174.635 15.6818C174.787 15.6818 175.014 15.5303 175.014 15.2273V14.3939C175.014 14.0909 174.862 13.9394 174.559 13.9394H171.526C170.995 13.9394 170.616 13.8636 170.388 13.7879C170.161 13.7121 170.085 13.5606 170.009 13.4091C169.933 13.1818 169.858 12.9545 169.858 12.5V10.1515H174.407C174.559 10.1515 174.711 10.0757 174.787 9.99998C174.862 9.92422 174.938 9.77271 174.938 9.62119V9.01513C174.938 8.78786 174.862 8.7121 174.787 8.63634C174.711 8.56059 174.559 8.48483 174.407 8.48483H169.858V6.51513C169.858 6.13634 169.933 5.83331 170.009 5.60604C170.085 5.45453 170.237 5.30301 170.388 5.22725C170.616 5.1515 170.995 5.07574 171.526 5.07574H174.559C174.787 5.07574 175.014 4.92422 175.014 4.62119V3.86362C175.014 3.63634 174.787 3.48483 174.635 3.40907Z" fill="#C5A57F"/>
<path d="M185.857 3.56057C185.781 3.48482 185.63 3.48482 185.478 3.48482H184.492C184.265 3.48482 184.189 3.48482 184.037 3.56057C183.886 3.63633 183.81 3.71209 183.734 3.8636L181.156 9.16663L178.578 3.8636C178.502 3.63633 178.274 3.40906 177.819 3.40906H176.758C176.53 3.40906 176.379 3.48482 176.227 3.63633C176.075 3.78785 176 3.93936 176 4.16663V15.0757C176 15.2272 176.075 15.3788 176.151 15.4545C176.227 15.5303 176.379 15.606 176.53 15.606H177.289C177.44 15.606 177.592 15.5303 177.668 15.4545C177.744 15.3788 177.819 15.2272 177.819 15.0757V6.81815L179.336 9.92421C179.563 10.303 179.791 10.606 180.018 10.7575C180.246 10.9091 180.549 10.9848 180.928 10.9848C181.308 10.9848 181.611 10.9091 181.838 10.6818C182.066 10.5303 182.293 10.2272 182.521 9.84845L184.037 6.74239V15C184.037 15.1515 184.113 15.303 184.189 15.3788C184.265 15.4545 184.417 15.5303 184.568 15.5303H185.326C185.478 15.5303 185.63 15.4545 185.706 15.3788C185.781 15.303 185.857 15.1515 185.857 15V4.16663C185.857 4.01512 185.857 3.93936 185.781 3.78785C186.085 3.71209 185.933 3.63633 185.857 3.56057Z" fill="#C5A57F"/>
<path d="M189.194 3.4848H188.36C188.208 3.4848 188.057 3.56056 187.981 3.63632C187.905 3.71208 187.829 3.86359 187.829 4.01511V15.0757C187.829 15.2272 187.905 15.3787 187.981 15.4545C188.057 15.5303 188.208 15.606 188.36 15.606H189.194C189.346 15.606 189.497 15.5303 189.573 15.4545C189.649 15.3787 189.725 15.2272 189.725 15.0757V4.01511C189.725 3.86359 189.649 3.71208 189.573 3.63632C189.422 3.4848 189.346 3.4848 189.194 3.4848Z" fill="#C5A57F"/>
<path d="M197.99 3.40907C197.687 3.40907 197.232 3.33331 196.55 3.33331C195.943 3.33331 195.336 3.33331 194.881 3.33331C193.668 3.33331 192.834 3.56059 192.227 4.09089C191.621 4.62119 191.317 5.45453 191.317 6.51513V12.5757C191.317 13.3333 191.469 13.9394 191.697 14.3939C192 14.8485 192.379 15.2273 192.91 15.4545C193.441 15.6818 194.123 15.7576 194.881 15.7576C196.474 15.7576 197.46 15.7576 197.99 15.6818C198.142 15.6818 198.37 15.5303 198.37 15.2273V14.3939C198.37 14.0909 198.218 13.9394 197.915 13.9394H194.881C194.351 13.9394 193.971 13.8636 193.744 13.7879C193.516 13.7121 193.441 13.5606 193.365 13.4091C193.289 13.1818 193.213 12.9545 193.213 12.5V10.1515H197.763C197.915 10.1515 198.066 10.0757 198.142 9.99998C198.218 9.92422 198.294 9.77271 198.294 9.62119V9.01513C198.294 8.78786 198.218 8.7121 198.142 8.63634C198.066 8.56059 197.915 8.48483 197.763 8.48483H193.213V6.51513C193.213 6.13634 193.289 5.83331 193.365 5.60604C193.441 5.45453 193.592 5.30301 193.744 5.22725C193.971 5.1515 194.351 5.07574 194.881 5.07574H197.915C198.142 5.07574 198.37 4.92422 198.37 4.62119V3.86362C198.37 3.63634 198.218 3.48483 197.99 3.40907Z" fill="#C5A57F"/>
<path d="M207.924 14.9242L205.27 10.4545C205.953 10.2273 206.483 9.84846 206.862 9.39392C207.317 8.78786 207.621 8.03028 207.621 7.19695V6.96968C207.621 6.13634 207.393 5.37877 207.014 4.84846C206.635 4.31816 206.028 3.93937 205.346 3.63634C204.663 3.40907 203.905 3.33331 202.995 3.33331C202.768 3.33331 202.54 3.33331 202.161 3.33331C201.782 3.33331 201.403 3.33331 201.099 3.40907C200.72 3.40907 200.417 3.48483 200.265 3.48483C199.886 3.56059 199.659 3.7121 199.659 4.09089V15.0757C199.659 15.2273 199.735 15.3788 199.81 15.4545C199.886 15.5303 200.038 15.606 200.19 15.606H201.024C201.175 15.606 201.327 15.5303 201.403 15.4545C201.479 15.3788 201.554 15.2273 201.554 15.0757V10.7576C202.237 10.7576 202.768 10.7576 202.995 10.7576H203.223L205.953 15.303C206.028 15.4545 206.104 15.5303 206.256 15.5303C206.332 15.606 206.483 15.606 206.635 15.606H207.621C207.924 15.606 208.076 15.4545 208.076 15.1515C208 15.0757 208 15 207.924 14.9242ZM205.346 8.25756C205.118 8.56059 204.891 8.7121 204.512 8.86362C204.133 9.01513 203.602 9.01513 202.919 9.01513C202.692 9.01513 202.237 9.01513 201.479 9.01513V5.22725C201.782 5.22725 202.237 5.22725 202.919 5.22725C203.602 5.22725 204.133 5.30301 204.512 5.37877C204.891 5.53028 205.194 5.6818 205.346 5.90907C205.498 6.13634 205.649 6.51513 205.649 6.96968V7.12119C205.649 7.57574 205.573 7.95452 205.346 8.25756Z" fill="#C5A57F"/>
<path d="M157.346 33.5606C157.346 35.8333 155.754 36.9697 152.645 36.9697C151.507 36.9697 150.673 36.8939 150.066 36.8182C149.915 36.8182 149.763 36.7424 149.687 36.6666C149.611 36.5909 149.536 36.4394 149.536 36.2121V25.5303C149.536 25.1515 149.687 25 150.066 24.9242C150.749 24.8485 151.583 24.7727 152.645 24.7727C153.555 24.7727 154.389 24.8485 155.071 25.0757C155.754 25.2272 156.284 25.606 156.739 26.0606C157.119 26.5151 157.346 27.1212 157.346 27.8788V28.106C157.346 28.7121 157.194 29.2424 156.891 29.6212C156.588 30.0757 156.133 30.3788 155.602 30.606C156.133 30.7576 156.588 31.1363 156.891 31.5909C157.194 32.0454 157.346 32.5757 157.346 33.1818V33.5606ZM155.829 28.1818V27.9545C155.829 27.2727 155.526 26.7424 154.995 26.5151C154.465 26.2879 153.63 26.1363 152.569 26.1363C152.341 26.1363 152.19 26.1363 152.114 26.1363C152.038 26.1363 151.886 26.1363 151.659 26.1363C151.431 26.1363 151.204 26.1363 150.976 26.1363V30.1515H153.479C155.071 30.0757 155.829 29.4697 155.829 28.1818ZM155.905 33.5606V33.2576C155.905 32.6515 155.754 32.1969 155.374 31.8182C154.995 31.4394 154.389 31.2879 153.479 31.2879H150.976V35.6818C151.128 35.6818 151.431 35.6818 151.811 35.7576C152.19 35.7576 152.493 35.7576 152.645 35.7576C153.327 35.7576 153.934 35.6818 154.389 35.606C154.844 35.4545 155.223 35.2272 155.45 34.9242C155.754 34.5454 155.905 34.1666 155.905 33.5606Z" fill="#C5A57F"/>
<path d="M165.081 36.2121C165.081 36.4394 165.005 36.5151 164.853 36.5909C164.398 36.7424 164.019 36.8182 163.564 36.8939C163.109 36.9697 162.654 36.9697 162.124 36.9697C160.91 36.9697 160 36.7424 159.394 36.3636C158.863 35.9091 158.56 35.303 158.56 34.3182V34.1666C158.56 33.5606 158.711 33.106 158.939 32.7272C159.166 32.3485 159.621 32.0454 160.152 31.8939C160.683 31.7424 161.441 31.5909 162.427 31.5909H163.64V30.9848C163.64 30.303 163.488 29.8485 163.261 29.6212C163.034 29.3939 162.579 29.2424 161.896 29.2424C161.441 29.2424 160.986 29.2424 160.683 29.3182C160.304 29.3939 159.925 29.4697 159.47 29.6212C159.394 29.6212 159.242 29.6212 159.166 29.6212C159.09 29.5454 159.09 29.5454 159.09 29.3939V28.7878C159.09 28.6363 159.166 28.5606 159.318 28.4848C159.545 28.4091 159.925 28.2575 160.379 28.1818C160.834 28.0303 161.365 28.0303 161.896 28.0303C164.019 28.0303 165.005 29.0151 165.005 31.0606V36.2121H165.081ZM163.716 35.7576V32.5757H162.503C161.972 32.5757 161.593 32.5757 161.289 32.6515C160.986 32.7272 160.759 32.803 160.531 32.9545C160.379 33.106 160.228 33.2575 160.152 33.4091C160.076 33.6363 160.076 33.8636 160.076 34.1666V34.3182C160.076 34.6969 160.152 35 160.228 35.2272C160.379 35.4545 160.531 35.606 160.834 35.7576C161.138 35.8333 161.593 35.9091 162.124 35.9091C162.351 35.9091 162.579 35.9091 162.73 35.9091C162.958 35.9091 163.109 35.9091 163.261 35.8333C163.488 35.7576 163.64 35.7576 163.716 35.7576Z" fill="#C5A57F"/>
<path d="M173.65 31.2879V36.5909C173.65 36.6667 173.65 36.7424 173.574 36.8182C173.498 36.8939 173.422 36.8939 173.346 36.8939H172.588C172.512 36.8939 172.436 36.8939 172.36 36.8182C172.285 36.7424 172.285 36.6667 172.285 36.5909V31.2879C172.285 30.7576 172.209 30.303 172.057 30C171.905 29.697 171.754 29.4697 171.451 29.3182C171.147 29.1667 170.844 29.0909 170.389 29.0909C169.706 29.0909 169.024 29.1667 168.341 29.3939V36.5152C168.341 36.5909 168.341 36.6667 168.266 36.7424C168.19 36.8182 168.114 36.8182 168.038 36.8182H167.28C167.204 36.8182 167.128 36.8182 167.052 36.7424C166.977 36.6667 166.977 36.5909 166.977 36.5152V28.7879C166.977 28.5606 167.052 28.4848 167.28 28.4091C168.569 28.1061 169.706 27.8788 170.616 27.8788C171.223 27.8788 171.754 27.9545 172.133 28.1061C172.512 28.2576 172.891 28.4848 173.119 28.7879C173.346 29.0909 173.498 29.3939 173.65 29.8485C173.574 30.2273 173.65 30.6818 173.65 31.2879Z" fill="#C5A57F"/>
<path d="M181.763 36.6666C181.763 36.8182 181.687 36.8939 181.611 36.8939H180.474C180.398 36.8939 180.322 36.8939 180.322 36.8182C180.246 36.8182 180.246 36.7424 180.095 36.6666L176.91 32.7273V36.5909C176.91 36.6666 176.91 36.7424 176.834 36.8182C176.758 36.8939 176.682 36.8939 176.607 36.8939H175.848C175.772 36.8939 175.697 36.8939 175.621 36.8182C175.545 36.7424 175.545 36.6666 175.545 36.5909V25.0757C175.545 25 175.545 24.9242 175.621 24.8485C175.697 24.7727 175.772 24.7727 175.848 24.7727H176.607C176.682 24.7727 176.758 24.7727 176.834 24.8485C176.91 24.9242 176.91 25 176.91 25.0757V31.8182L180.095 28.1818C180.171 28.106 180.322 28.0303 180.398 28.0303H181.535C181.687 28.0303 181.763 28.106 181.763 28.1818C181.763 28.2576 181.763 28.3333 181.687 28.3333L178.123 32.1212L181.687 36.4394C181.687 36.5151 181.763 36.5909 181.763 36.6666Z" fill="#C5A57F"/>
<path d="M184.645 26.2879C184.645 26.3636 184.645 26.4394 184.569 26.5151C184.493 26.5909 184.417 26.5909 184.342 26.5909H183.507C183.432 26.5909 183.356 26.5909 183.28 26.5151C183.204 26.4394 183.204 26.3636 183.204 26.2879V25C183.204 24.9242 183.204 24.8485 183.28 24.7727C183.356 24.697 183.432 24.697 183.507 24.697H184.342C184.417 24.697 184.493 24.697 184.569 24.7727C184.645 24.8485 184.645 24.9242 184.645 25V26.2879ZM184.645 36.5151C184.645 36.5909 184.645 36.6667 184.569 36.7424C184.493 36.8182 184.417 36.8182 184.342 36.8182H183.583C183.507 36.8182 183.432 36.8182 183.356 36.7424C183.28 36.6667 183.28 36.5909 183.28 36.5151V28.3333C183.28 28.2576 183.28 28.1818 183.356 28.1061C183.432 28.0303 183.507 28.0303 183.583 28.0303H184.342C184.417 28.0303 184.493 28.0303 184.569 28.1061C184.645 28.1818 184.645 28.2576 184.645 28.3333V36.5151Z" fill="#C5A57F"/>
<path d="M193.289 31.2879V36.5909C193.289 36.6667 193.289 36.7424 193.213 36.8182C193.138 36.8939 193.062 36.8939 192.986 36.8939H192.228C192.152 36.8939 192.076 36.8939 192 36.8182C191.924 36.7424 191.924 36.6667 191.924 36.5909V31.2879C191.924 30.7576 191.848 30.303 191.697 30C191.545 29.697 191.393 29.4697 191.09 29.3182C190.787 29.1667 190.484 29.0909 190.029 29.0909C189.346 29.0909 188.664 29.1667 187.981 29.3939V36.5152C187.981 36.5909 187.981 36.6667 187.905 36.7424C187.829 36.8182 187.754 36.8182 187.678 36.8182H186.92C186.844 36.8182 186.768 36.8182 186.692 36.7424C186.616 36.6667 186.616 36.5909 186.616 36.5152V28.7879C186.616 28.5606 186.692 28.4848 186.92 28.4091C188.209 28.1061 189.346 27.8788 190.256 27.8788C190.863 27.8788 191.393 27.9545 191.773 28.1061C192.152 28.2576 192.531 28.4848 192.758 28.7879C192.986 29.0909 193.138 29.3939 193.289 29.8485C193.289 30.2273 193.289 30.6818 193.289 31.2879Z" fill="#C5A57F"/>
<path d="M198.142 38.8636C198.673 38.8636 199.052 38.7879 199.356 38.7121C199.659 38.6364 199.887 38.4091 199.962 38.1061C200.114 37.803 200.19 37.4242 200.19 36.8939V36.8182C199.962 36.8939 199.659 36.8939 199.356 36.9697C198.977 37.0455 198.673 37.0455 198.446 37.0455C196.019 37.0455 194.882 35.7576 194.882 33.1061V31.8182C194.882 30.9091 195.033 30.1515 195.261 29.6212C195.488 29.0151 195.943 28.6364 196.474 28.3333C197.005 28.0303 197.688 27.8788 198.446 27.8788C199.28 27.8788 200.266 28.0303 201.327 28.2576C201.479 28.2576 201.555 28.3333 201.631 28.3333C201.706 28.4091 201.706 28.4848 201.706 28.5606V36.7424C201.706 37.8788 201.403 38.7121 200.872 39.1667C200.266 39.6212 199.432 39.8485 198.294 39.8485C197.763 39.8485 197.233 39.7727 196.702 39.6212C196.247 39.4697 195.868 39.3182 195.64 39.2424C195.488 39.1667 195.413 39.0152 195.413 38.8636V38.3333C195.413 38.2576 195.413 38.1818 195.488 38.1061C195.564 38.0303 195.64 38.0303 195.792 38.1061C196.323 38.3333 196.778 38.4848 197.081 38.5606C197.233 38.7879 197.688 38.8636 198.142 38.8636ZM200.19 35.6061V29.3182C199.583 29.1667 198.977 29.1667 198.37 29.1667C197.991 29.1667 197.612 29.2424 197.384 29.3182C197.081 29.3939 196.853 29.5455 196.702 29.7727C196.55 30 196.398 30.303 196.323 30.6061C196.247 30.9091 196.171 31.3636 196.171 31.8939V33.1061C196.171 33.7879 196.247 34.3182 196.398 34.697C196.55 35.0758 196.778 35.3788 197.081 35.5303C197.384 35.6818 197.839 35.8333 198.294 35.8333C198.522 35.8333 198.825 35.8333 199.204 35.7576C199.659 35.6818 199.962 35.6818 200.19 35.6061Z" fill="#C5A57F"/>
</g>
<defs>
<clipPath id="clip0">
<rect width="208" height="40" fill="white"/>
</clipPath>
</defs>
</svg>
