<svg width="232" height="575" viewBox="0 0 232 575" fill="none" xmlns="http://www.w3.org/2000/svg">
<path d="M118.931 177.26C121.556 177.26 123.342 175.877 123.777 173.521H122.014C121.658 174.897 120.528 175.711 118.939 175.711C116.844 175.711 115.516 174.027 115.516 171.363C115.516 168.722 116.86 167.023 118.931 167.023C120.48 167.023 121.698 167.979 122.014 169.442H123.769C123.469 167.062 121.516 165.473 118.931 165.473C115.745 165.473 113.705 167.75 113.705 171.363C113.705 174.999 115.729 177.26 118.931 177.26Z" fill="#888888"/>
<path d="M129.129 167.584L130.955 165.173H129.232L127.88 167.584H129.129ZM127.588 177.213C128.679 177.213 129.73 176.628 130.212 175.703H130.252V177.071H131.888V171.339C131.888 169.671 130.6 168.604 128.584 168.604C126.528 168.604 125.248 169.711 125.153 171.213H126.765C126.916 170.469 127.532 169.995 128.521 169.995C129.564 169.995 130.189 170.549 130.189 171.473V172.114L127.912 172.248C125.935 172.359 124.821 173.252 124.821 174.707C124.821 176.201 125.959 177.213 127.588 177.213ZM128.062 175.861C127.145 175.861 126.544 175.387 126.544 174.659C126.544 173.948 127.121 173.497 128.141 173.426L130.189 173.3V173.956C130.189 175.039 129.256 175.861 128.062 175.861Z" fill="#888888"/>
<path d="M140.687 171.616C140.537 169.979 139.233 168.604 137.09 168.604C134.726 168.604 133.177 170.272 133.177 172.912C133.177 175.6 134.726 177.229 137.106 177.229C139.106 177.229 140.521 176.027 140.703 174.256H139.059C138.861 175.221 138.173 175.798 137.122 175.798C135.794 175.798 134.916 174.739 134.916 172.912C134.916 171.126 135.786 170.027 137.106 170.027C138.221 170.027 138.885 170.73 139.059 171.616H140.687Z" fill="#888888"/>
<path d="M145.265 177.071H146.972V165.663H145.265V177.071Z" fill="#888888"/>
<path d="M152.301 177.229C154.681 177.229 156.246 175.592 156.246 172.912C156.246 170.24 154.673 168.604 152.301 168.604C149.929 168.604 148.356 170.24 148.356 172.912C148.356 175.592 149.921 177.229 152.301 177.229ZM152.301 175.822C150.965 175.822 150.095 174.762 150.095 172.912C150.095 171.07 150.965 170.011 152.301 170.011C153.637 170.011 154.507 171.07 154.507 172.912C154.507 174.762 153.645 175.822 152.301 175.822Z" fill="#888888"/>
<path d="M160.001 177.213C161.092 177.213 162.144 176.628 162.626 175.703H162.665V177.071H164.302V171.339C164.302 169.671 163.013 168.604 160.997 168.604C158.942 168.604 157.661 169.711 157.566 171.213H159.179C159.329 170.469 159.946 169.995 160.934 169.995C161.978 169.995 162.602 170.549 162.602 171.473V172.114L160.325 172.248C158.349 172.359 157.234 173.252 157.234 174.707C157.234 176.201 158.373 177.213 160.001 177.213ZM160.475 175.861C159.558 175.861 158.958 175.387 158.958 174.659C158.958 173.948 159.535 173.497 160.554 173.426L162.602 173.3V173.956C162.602 175.039 161.669 175.861 160.475 175.861ZM160.807 180.075C161.353 180.075 161.788 179.632 161.788 179.095C161.788 178.549 161.353 178.114 160.807 178.114C160.262 178.114 159.819 178.549 159.819 179.095C159.819 179.632 160.262 180.075 160.807 180.075Z" fill="#888888"/>
<path d="M166.871 167.41C167.417 167.41 167.851 166.967 167.851 166.43C167.851 165.884 167.417 165.449 166.871 165.449C166.326 165.449 165.883 165.884 165.883 166.43C165.883 166.967 166.326 167.41 166.871 167.41ZM166.017 177.071H167.725V168.754H166.017V177.071Z" fill="#888888"/>
<path d="M173.259 166.785V168.754H172.049V170.106H173.259V174.881C173.259 176.486 173.915 177.126 175.599 177.126C175.979 177.126 176.358 177.094 176.548 177.047V175.695C176.437 175.719 176.16 175.735 175.986 175.735C175.291 175.735 174.975 175.411 174.975 174.691V170.106H176.556V168.754H174.975V166.785H173.259Z" fill="#888888"/>
<path d="M178.026 177.071H179.734V172.264C179.734 170.952 180.509 170.082 181.773 170.082C182.975 170.082 183.592 170.817 183.592 172.043V177.071H185.307V171.711C185.307 169.829 184.216 168.612 182.39 168.612C181.125 168.612 180.216 169.173 179.757 170.145H179.718V165.663H178.026V177.071Z" fill="#888888"/>
<path d="M189.41 165.9C189.734 165.758 189.932 165.718 190.217 165.718C190.636 165.718 190.952 165.987 190.952 166.327C190.952 166.73 190.731 166.991 190.217 167.181L190.77 167.908C191.6 167.584 192.122 166.944 192.122 166.256C192.122 165.362 191.49 164.777 190.509 164.777C190.09 164.777 189.742 164.848 189.41 164.983V165.9ZM192.47 174.628C192.241 175.355 191.521 175.845 190.549 175.845C189.181 175.845 188.311 174.889 188.311 173.442V173.339H194.185V172.754C194.185 170.232 192.747 168.604 190.438 168.604C188.09 168.604 186.588 170.343 186.588 172.952C186.588 175.577 188.066 177.229 190.509 177.229C192.415 177.229 193.853 176.146 194.091 174.628H192.47ZM190.438 169.979C191.632 169.979 192.438 170.873 192.478 172.145H188.319C188.406 170.888 189.244 169.979 190.438 169.979Z" fill="#888888"/>
<path d="M200.589 172.319H200.573V165.663H198.866V177.071H200.573V174.082L201.285 173.379L204.107 177.071H206.091L202.51 172.335L205.957 168.754H203.949L200.589 172.319Z" fill="#888888"/>
<path d="M207.04 177.071H208.748V172.264C208.748 170.952 209.523 170.082 210.787 170.082C211.989 170.082 212.606 170.817 212.606 172.043V177.071H214.321V171.711C214.321 169.829 213.23 168.612 211.404 168.612C210.139 168.612 209.23 169.173 208.771 170.145H208.732V165.663H207.04V177.071Z" fill="#888888"/>
<path d="M219.95 167.584L221.776 165.173H220.053L218.701 167.584H219.95ZM218.409 177.213C219.5 177.213 220.551 176.628 221.033 175.703H221.073V177.071H222.709V171.339C222.709 169.671 221.421 168.604 219.405 168.604C217.349 168.604 216.068 169.711 215.974 171.213H217.586C217.737 170.469 218.353 169.995 219.341 169.995C220.385 169.995 221.01 170.549 221.01 171.473V172.114L218.733 172.248C216.756 172.359 215.642 173.252 215.642 174.707C215.642 176.201 216.78 177.213 218.409 177.213ZM218.883 175.861C217.966 175.861 217.365 175.387 217.365 174.659C217.365 173.948 217.942 173.497 218.962 173.426L221.01 173.3V173.956C221.01 175.039 220.077 175.861 218.883 175.861Z" fill="#888888"/>
<path d="M231.508 171.616C231.358 169.979 230.054 168.604 227.911 168.604C225.547 168.604 223.998 170.272 223.998 172.912C223.998 175.6 225.547 177.229 227.927 177.229C229.927 177.229 231.342 176.027 231.524 174.256H229.88C229.682 175.221 228.994 175.798 227.943 175.798C226.615 175.798 225.737 174.739 225.737 172.912C225.737 171.126 226.607 170.027 227.927 170.027C229.042 170.027 229.706 170.73 229.88 171.616H231.508Z" fill="#888888"/>
<path d="M114.409 188.373V190.342H113.199V191.694H114.409V196.469C114.409 198.074 115.065 198.714 116.749 198.714C117.128 198.714 117.508 198.682 117.698 198.635V197.283C117.587 197.307 117.31 197.323 117.136 197.323C116.441 197.323 116.124 196.998 116.124 196.279V191.694H117.705V190.342H116.124V188.373H114.409Z" fill="#888888"/>
<path d="M119.113 198.659H120.82V193.678C120.82 192.5 121.5 191.765 122.599 191.765C122.931 191.765 123.232 191.804 123.366 191.86V190.271C123.239 190.247 123.026 190.207 122.781 190.207C121.801 190.207 121.058 190.785 120.781 191.757H120.741V190.342H119.113V198.659Z" fill="#888888"/>
<path d="M128.196 186.761H126.884L124.908 189.172H126.339L127.516 187.701H127.564L128.75 189.172H130.181L128.196 186.761ZM129.572 196.216C129.343 196.943 128.623 197.433 127.651 197.433C126.283 197.433 125.414 196.477 125.414 195.03V194.927H131.288V194.342C131.288 191.82 129.849 190.192 127.54 190.192C125.192 190.192 123.69 191.931 123.69 194.54C123.69 197.164 125.168 198.817 127.611 198.817C129.517 198.817 130.955 197.734 131.193 196.216H129.572ZM127.54 191.567C128.734 191.567 129.54 192.461 129.58 193.733H125.421C125.508 192.476 126.346 191.567 127.54 191.567Z" fill="#888888"/>
<path d="M132.616 198.659H134.323V193.812C134.323 192.524 135.098 191.67 136.3 191.67C137.486 191.67 138.071 192.358 138.071 193.607V198.659H139.786V193.275C139.786 191.37 138.735 190.2 136.901 190.2C135.62 190.2 134.734 190.785 134.284 191.733H134.244V190.342H132.616V198.659Z" fill="#888888"/>
<path d="M145.225 188.373V190.342H144.016V191.694H145.225V196.469C145.225 198.074 145.881 198.714 147.565 198.714C147.945 198.714 148.324 198.682 148.514 198.635V197.283C148.403 197.307 148.127 197.323 147.953 197.323C147.257 197.323 146.941 196.998 146.941 196.279V191.694H148.522V190.342H146.941V188.373H145.225Z" fill="#888888"/>
<path d="M149.992 198.659H151.7V193.852C151.7 192.54 152.475 191.67 153.74 191.67C154.941 191.67 155.558 192.405 155.558 193.631V198.659H157.274V193.299C157.274 191.417 156.183 190.2 154.356 190.2C153.091 190.2 152.182 190.761 151.724 191.733H151.684V187.251H149.992V198.659Z" fill="#888888"/>
<path d="M159.835 188.998C160.381 188.998 160.815 188.555 160.815 188.018C160.815 187.472 160.381 187.037 159.835 187.037C159.29 187.037 158.847 187.472 158.847 188.018C158.847 188.555 159.29 188.998 159.835 188.998ZM158.981 198.659H160.689V190.342H158.981V198.659ZM159.835 201.663C160.381 201.663 160.815 201.22 160.815 200.682C160.815 200.137 160.381 199.702 159.835 199.702C159.29 199.702 158.847 200.137 158.847 200.682C158.847 201.22 159.29 201.663 159.835 201.663Z" fill="#888888"/>
<path d="M166.223 188.373V190.342H165.013V191.694H166.223V196.469C166.223 198.074 166.879 198.714 168.563 198.714C168.942 198.714 169.322 198.682 169.512 198.635V197.283C169.401 197.307 169.124 197.323 168.95 197.323C168.255 197.323 167.938 196.998 167.938 196.279V191.694H169.52V190.342H167.938V188.373H166.223Z" fill="#888888"/>
<path d="M170.927 198.659H172.634V193.678C172.634 192.5 173.314 191.765 174.413 191.765C174.745 191.765 175.046 191.804 175.18 191.86V190.271C175.054 190.247 174.84 190.207 174.595 190.207C173.615 190.207 172.872 190.785 172.595 191.757H172.555V190.342H170.927V198.659Z" fill="#888888"/>
<path d="M181.694 197.251H181.734V198.659H183.37V191.536H183.726C184.746 191.536 185.355 190.966 185.355 190.026V188.523H183.9V189.709C183.9 190.136 183.695 190.342 183.244 190.342H181.663V195.188C181.663 196.485 180.92 197.338 179.686 197.338C178.508 197.338 177.908 196.658 177.908 195.394V190.342H176.2V195.726C176.2 197.631 177.307 198.809 179.117 198.809C180.39 198.809 181.236 198.248 181.694 197.251Z" fill="#888888"/>
<path d="M188.746 189.172H189.995L188.644 186.761H186.928L188.746 189.172ZM193.324 194.556C193.324 193.306 192.96 192.31 192.335 191.607V191.567H192.596C193.34 191.567 193.814 191.045 193.814 190.255V188.705H192.367V189.781C192.367 190.286 192.154 190.468 191.537 190.468C190.833 190.468 190.446 190.192 189.379 190.192C187.007 190.192 185.434 191.836 185.434 194.5C185.434 197.172 186.991 198.817 189.395 198.817C191.743 198.817 193.324 197.157 193.324 194.556ZM189.379 197.41C188.043 197.41 187.173 196.35 187.173 194.5C187.173 192.658 188.043 191.599 189.379 191.599C190.723 191.599 191.584 192.658 191.584 194.5C191.584 196.35 190.723 197.41 189.379 197.41Z" fill="#888888"/>
<path d="M195.213 198.659H196.921V193.812C196.921 192.524 197.696 191.67 198.897 191.67C200.083 191.67 200.668 192.358 200.668 193.607V198.659H202.384V193.275C202.384 191.37 201.332 190.2 199.498 190.2C198.217 190.2 197.332 190.785 196.881 191.733H196.842V190.342H195.213V198.659Z" fill="#888888"/>
<path d="M207.594 201.789C209.965 201.789 211.499 200.493 211.499 198.508V190.342H209.839V191.765H209.807C209.301 190.8 208.337 190.207 207.159 190.207C205.024 190.207 203.664 191.852 203.664 194.469C203.664 197.062 205.032 198.69 207.119 198.69C208.305 198.69 209.285 198.097 209.752 197.196H209.783V198.564C209.783 199.702 208.993 200.461 207.657 200.461C206.684 200.461 205.925 200.003 205.68 199.307H203.965C204.178 200.746 205.633 201.789 207.594 201.789ZM207.578 197.275C206.265 197.275 205.412 196.216 205.412 194.476C205.412 192.745 206.265 191.646 207.578 191.646C208.914 191.646 209.791 192.769 209.791 194.476C209.791 196.192 208.914 197.275 207.578 197.275Z" fill="#888888"/>
<path d="M118.59 146H121.156V129.09H118.566L114.113 132.254V134.738L118.531 131.691H118.59V146Z" fill="white"/>
<path d="M126.629 146.129C127.484 146.129 128.164 145.449 128.164 144.594C128.164 143.738 127.484 143.059 126.629 143.059C125.773 143.059 125.094 143.738 125.094 144.594C125.094 145.449 125.773 146.129 126.629 146.129Z" fill="white"/>
<path d="M131.258 146H134.012L141.359 131.363V129.09H129.852V131.305H138.77V131.363L131.258 146Z" fill="white"/>
<path d="M149.727 146.316C153.383 146.316 155.938 143.914 155.938 140.457C155.938 137.223 153.605 134.879 150.371 134.879C148.707 134.879 147.301 135.523 146.539 136.66H146.48L146.996 131.305H154.953V129.09H144.875L144.043 138.84H146.34C147.055 137.598 148.262 136.953 149.773 136.953C151.883 136.953 153.371 138.441 153.371 140.527C153.371 142.637 151.895 144.125 149.75 144.125C147.863 144.125 146.434 142.977 146.246 141.301H143.738C143.891 144.254 146.352 146.316 149.727 146.316Z" fill="white"/>
<path d="M161.023 137.141C163.273 137.141 164.75 135.5 164.75 133.004C164.75 130.484 163.262 128.867 161.023 128.867C158.785 128.867 157.285 130.484 157.285 133.004C157.285 135.512 158.785 137.141 161.023 137.141ZM161.023 135.535C159.91 135.535 159.16 134.586 159.16 133.004C159.16 131.422 159.91 130.484 161.023 130.484C162.148 130.484 162.887 131.422 162.887 133.004C162.887 134.586 162.137 135.535 161.023 135.535ZM161.773 146L173.422 129.09H171.301L159.629 146H161.773ZM172.039 146.211C174.277 146.211 175.766 144.57 175.766 142.074C175.766 139.555 174.277 137.938 172.039 137.938C169.801 137.938 168.301 139.555 168.301 142.074C168.301 144.582 169.789 146.211 172.039 146.211ZM172.039 144.605C170.926 144.605 170.164 143.656 170.164 142.074C170.164 140.492 170.926 139.555 172.039 139.555C173.152 139.555 173.902 140.492 173.902 142.074C173.902 143.656 173.152 144.605 172.039 144.605Z" fill="white"/>
<path d="M190.227 140.281V137.996H182.539V140.281H190.227Z" fill="white"/>
<path d="M201.441 138.301H203.492C205.754 138.301 207.148 139.379 207.137 141.312C207.125 142.953 205.742 144.125 203.68 144.125C201.559 144.125 200.117 143.059 199.988 141.406H197.469C197.633 144.312 200.059 146.316 203.68 146.316C207.207 146.316 209.809 144.289 209.809 141.312C209.809 138.945 208.145 137.434 205.66 137.211V137.152C207.734 136.719 209.223 135.301 209.223 133.18C209.223 130.66 207.102 128.773 203.656 128.773C200.352 128.773 198.043 130.66 197.832 133.613H200.293C200.422 131.926 201.781 130.93 203.656 130.93C205.648 130.93 206.668 131.961 206.668 133.543C206.668 135.125 205.355 136.262 203.422 136.262H201.441V138.301Z" fill="white"/>
<path d="M215.258 137.141C217.508 137.141 218.984 135.5 218.984 133.004C218.984 130.484 217.496 128.867 215.258 128.867C213.02 128.867 211.52 130.484 211.52 133.004C211.52 135.512 213.02 137.141 215.258 137.141ZM215.258 135.535C214.145 135.535 213.395 134.586 213.395 133.004C213.395 131.422 214.145 130.484 215.258 130.484C216.383 130.484 217.121 131.422 217.121 133.004C217.121 134.586 216.371 135.535 215.258 135.535ZM216.008 146L227.656 129.09H225.535L213.863 146H216.008ZM226.273 146.211C228.512 146.211 230 144.57 230 142.074C230 139.555 228.512 137.938 226.273 137.938C224.035 137.938 222.535 139.555 222.535 142.074C222.535 144.582 224.023 146.211 226.273 146.211ZM226.273 144.605C225.16 144.605 224.398 143.656 224.398 142.074C224.398 140.492 225.16 139.555 226.273 139.555C227.387 139.555 228.137 140.492 228.137 142.074C228.137 143.656 227.387 144.605 226.273 144.605Z" fill="white"/>
<path d="M0.168945 4.36891L0.168945 20.96H2.74441L2.74441 15.2917L6.30868 15.2917C9.5625 15.2917 11.8505 13.0611 11.8505 9.81879C11.8505 6.58795 9.60849 4.36891 6.38916 4.36891L0.168945 4.36891ZM2.74441 6.54196L5.7108 6.54196C7.94134 6.54196 9.21758 7.73772 9.21758 9.83028C9.21758 11.9229 7.94134 13.1301 5.6993 13.1301L2.74441 13.1301L2.74441 6.54196Z" fill="white"/>
<path d="M13.8971 20.96H16.3806V13.9694C16.3806 12.0608 17.5074 10.7961 19.347 10.7961C21.0946 10.7961 21.9914 11.8654 21.9914 13.6475V20.96H24.4864V13.1646C24.4864 10.4282 22.8997 8.65753 20.2438 8.65753C18.4042 8.65753 17.0819 9.47386 16.4151 10.8881H16.3576V4.36891L13.8971 4.36891L13.8971 20.96Z" fill="white"/>
<path d="M26.9699 20.96H29.4534L29.4534 8.86448L26.9699 8.86448L26.9699 20.96ZM29.1315 7.16284L31.7874 3.65606H29.2809L27.3148 7.16284H29.1315Z" fill="white"/>
<path d="M47.1597 13.0266C46.9413 10.6466 45.0442 8.64603 41.9283 8.64603C38.4905 8.64603 36.237 11.072 36.237 14.9122C36.237 18.8214 38.4905 21.1899 41.9513 21.1899C44.8602 21.1899 46.9183 19.4423 47.1827 16.8668H44.7912C44.5038 18.2695 43.5035 19.1089 41.9743 19.1089C40.0427 19.1089 38.7665 17.5682 38.7665 14.9122C38.7665 12.3138 40.0312 10.7156 41.9513 10.7156C43.5725 10.7156 44.5383 11.7389 44.7912 13.0266H47.1597Z" fill="white"/>
<path d="M49.0338 20.96H51.5173V13.9694C51.5173 12.0608 52.6441 10.7961 54.4837 10.7961C56.2314 10.7961 57.1282 11.8654 57.1282 13.6475V20.96H59.6232V13.1646C59.6232 10.4282 58.0365 8.65753 55.3805 8.65753C53.5409 8.65753 52.2187 9.47386 51.5518 10.8881H51.4943V4.36891H49.0338V20.96Z" fill="white"/>
<path d="M72.397 8.86448L69.9135 8.86448V15.9125C69.9135 17.7981 68.8327 19.0399 67.0391 19.0399C65.326 19.0399 64.4522 18.0511 64.4522 16.2115V8.86448H61.9687V16.6944C61.9687 19.4653 63.5783 21.1784 66.2113 21.1784C68.0624 21.1784 69.2927 20.3621 69.9595 18.9134H70.017V20.96H72.397V8.86448Z" fill="white"/>
<path d="M76.0648 25.4671C78.5712 25.4671 79.767 24.5242 80.8018 21.5924L85.3318 8.86448L82.7104 8.86448L79.652 18.7064H79.606L76.5477 8.86448H73.8572L78.2263 20.9715C78.2263 20.983 78.0079 21.6958 78.0079 21.7188C77.6284 22.9606 77.0076 23.4435 75.8578 23.4435C75.6508 23.4435 75.2369 23.4435 75.053 23.3975V25.4096C75.2369 25.4441 75.8578 25.4671 76.0648 25.4671Z" fill="white"/>
<path d="M91.5061 10.6466C93.2422 10.6466 94.415 11.9458 94.4725 13.797L88.4247 13.797C88.5512 11.9688 89.7699 10.6466 91.5061 10.6466ZM94.461 17.4072C94.1275 18.465 93.0812 19.1779 91.667 19.1779C89.6779 19.1779 88.4132 17.7866 88.4132 15.6826V15.5331L96.9559 15.5331V14.6823C96.9559 11.0145 94.8634 8.64603 91.5061 8.64603C88.0913 8.64603 85.9067 11.1755 85.9067 14.9697C85.9067 18.7869 88.0568 21.1899 91.6095 21.1899C94.3805 21.1899 96.473 19.6148 96.818 17.4072H94.461ZM92.6328 1.59799C92.9893 1.46001 93.3457 1.39103 93.7481 1.39103C94.3345 1.39103 94.7599 1.73596 94.7599 2.20736C94.7599 2.70176 94.3805 3.15016 93.7481 3.39161L94.6104 4.29993C95.7027 3.92051 96.3006 3.12717 96.3006 2.06939C96.3006 0.862138 95.3808 0.0917969 93.9436 0.0917969C93.4722 0.0917969 92.9203 0.195275 92.6328 0.344745V1.59799ZM92.4719 3.85152H90.5403L87.4474 7.18583H89.586L91.4716 5.13925H91.5406L93.4262 7.18583H95.5647L92.4719 3.85152Z" fill="white"/>
<path d="M98.8875 20.96L101.371 20.96V13.9119C101.371 12.0378 102.498 10.7961 104.245 10.7961C105.97 10.7961 106.821 11.7964 106.821 13.613V20.96H109.316V13.1301C109.316 10.3592 107.787 8.65753 105.119 8.65753C103.257 8.65753 101.969 9.50835 101.314 10.8881H101.256V8.86448H98.8875V20.96Z" fill="white"/>
<path d="M121.699 19.0629C119.733 19.0629 118.502 17.4647 118.502 14.9122C118.502 12.3713 119.733 10.7616 121.699 10.7616C123.607 10.7616 124.884 12.4058 124.884 14.9122C124.884 17.4417 123.607 19.0629 121.699 19.0629ZM128.988 5.50718H127.356V4.36891H124.861V5.50718L122.262 5.50718V7.04786L124.861 7.04786V10.8766H124.815C124.136 9.54284 122.757 8.66902 121.02 8.66902C117.985 8.66902 115.962 11.095 115.962 14.9122C115.962 18.7294 117.985 21.1669 121.043 21.1669C122.803 21.1669 124.182 20.2816 124.895 18.9019H124.941V20.96H127.356V7.04786H128.988V5.50718Z" fill="white"/>
<path d="M135.105 21.1899C138.566 21.1899 140.842 18.8099 140.842 14.9122C140.842 11.026 138.554 8.64603 135.105 8.64603C131.656 8.64603 129.368 11.026 129.368 14.9122C129.368 18.8099 131.644 21.1899 135.105 21.1899ZM135.105 19.1434C133.162 19.1434 131.897 17.6027 131.897 14.9122C131.897 12.2333 133.162 10.6926 135.105 10.6926C137.048 10.6926 138.313 12.2333 138.313 14.9122C138.313 17.6027 137.06 19.1434 135.105 19.1434ZM136.232 1.59799C136.588 1.46001 136.945 1.39103 137.347 1.39103C137.933 1.39103 138.359 1.73596 138.359 2.20736C138.359 2.70176 137.979 3.15016 137.347 3.39161L138.209 4.29993C139.302 3.92051 139.9 3.12717 139.9 2.06939C139.9 0.862138 138.98 0.0917969 137.543 0.0917969C137.071 0.0917969 136.519 0.195275 136.232 0.344745V1.59799ZM136.071 3.85152H134.139L131.046 7.18583H133.185L135.071 5.13925H135.14L137.025 7.18583H139.164L136.071 3.85152Z" fill="white"/>
<path d="M142.843 20.96L145.326 20.96V8.86448H142.843V20.96ZM144.085 6.90989C144.878 6.90989 145.51 6.26602 145.51 5.48418C145.51 4.69085 144.878 4.05848 144.085 4.05848C143.291 4.05848 142.647 4.69085 142.647 5.48418C142.647 6.26602 143.291 6.90989 144.085 6.90989Z" fill="white"/>
<path d="M152.65 20.96H155.134V13.9119C155.134 12.0378 156.261 10.7961 158.008 10.7961C159.733 10.7961 160.584 11.7964 160.584 13.613V20.96H163.079V13.1301C163.079 10.3592 161.55 8.65753 158.882 8.65753C157.02 8.65753 155.732 9.50835 155.076 10.8881H155.019V8.86448H152.65V20.96Z" fill="white"/>
<path d="M170.633 18.9479C168.724 18.9479 167.482 17.4072 167.482 14.8777C167.482 12.3598 168.724 10.7616 170.633 10.7616C172.576 10.7616 173.852 12.3943 173.852 14.8777C173.852 17.3727 172.576 18.9479 170.633 18.9479ZM170.656 25.513C174.105 25.513 176.336 23.6274 176.336 20.7415V8.86448H173.921V10.9341H173.875C173.139 9.53135 171.736 8.66902 170.023 8.66902C166.919 8.66902 164.941 11.0605 164.941 14.8662C164.941 18.6375 166.93 21.006 169.966 21.006C171.69 21.006 173.116 20.1437 173.795 18.8329H173.841V20.822C173.841 22.4777 172.691 23.5814 170.748 23.5814C169.333 23.5814 168.23 22.9146 167.873 21.9028L165.378 21.9028C165.689 23.9954 167.804 25.513 170.656 25.513Z" fill="white"/>
<path d="M183.993 21.1899C187.454 21.1899 189.73 18.8099 189.73 14.9122C189.73 11.026 187.442 8.64603 183.993 8.64603C180.544 8.64603 178.256 11.026 178.256 14.9122C178.256 18.8099 180.532 21.1899 183.993 21.1899ZM183.993 19.1434C182.05 19.1434 180.785 17.6027 180.785 14.9122C180.785 12.2333 182.05 10.6926 183.993 10.6926C185.936 10.6926 187.201 12.2333 187.201 14.9122C187.201 17.6027 185.948 19.1434 183.993 19.1434Z" fill="white"/>
<path d="M195.881 19.2008C194.548 19.2008 193.674 18.511 193.674 17.4532C193.674 16.4184 194.513 15.7631 195.996 15.6596L198.974 15.4756V16.4299C198.974 18.0051 197.618 19.2008 195.881 19.2008ZM195.192 21.1669C196.778 21.1669 198.307 20.3161 199.009 18.9709H199.066V20.96H201.446V12.6242C201.446 10.1982 199.572 8.64603 196.64 8.64603C193.651 8.64603 191.788 10.2557 191.65 12.4402L193.996 12.4402C194.214 11.3595 195.111 10.6696 196.548 10.6696C198.066 10.6696 198.974 11.4744 198.974 12.8197V13.751L195.663 13.9464C192.789 14.1074 191.167 15.4066 191.167 17.5222C191.167 19.6952 192.823 21.1669 195.192 21.1669ZM196.364 25.3291C197.158 25.3291 197.79 24.6852 197.79 23.9034C197.79 23.11 197.158 22.4777 196.364 22.4777C195.571 22.4777 194.927 23.11 194.927 23.9034C194.927 24.6852 195.571 25.3291 196.364 25.3291Z" fill="white"/>
<path d="M203.941 20.96H206.425V8.86448L203.941 8.86448V20.96ZM205.183 6.90989C205.976 6.90989 206.609 6.26602 206.609 5.48418C206.609 4.69085 205.976 4.05848 205.183 4.05848C204.39 4.05848 203.746 4.69085 203.746 5.48418C203.746 6.26602 204.39 6.90989 205.183 6.90989Z" fill="white"/>
<path d="M214.473 6.00157V8.86448H212.714V10.8306H214.473V17.7751C214.473 20.1092 215.427 21.0405 217.876 21.0405C218.428 21.0405 218.98 20.9945 219.256 20.9255V18.9594C219.095 18.9939 218.693 19.0169 218.44 19.0169C217.428 19.0169 216.968 18.5455 216.968 17.4992V10.8306H219.268V8.86448H216.968V6.00157H214.473Z" fill="white"/>
<path d="M226.074 10.6466C227.81 10.6466 228.983 11.9458 229.041 13.797L222.993 13.797C223.119 11.9688 224.338 10.6466 226.074 10.6466ZM229.029 17.4072C228.696 18.465 227.649 19.1779 226.235 19.1779C224.246 19.1779 222.981 17.7866 222.981 15.6826V15.5331L231.524 15.5331V14.6823C231.524 11.0145 229.432 8.64603 226.074 8.64603C222.659 8.64603 220.475 11.1755 220.475 14.9697C220.475 18.7869 222.625 21.1899 226.178 21.1899C228.949 21.1899 231.041 19.6148 231.386 17.4072H229.029ZM227.029 3.65606L225.12 3.65606L222.246 7.16284L224.315 7.16284L226.04 5.02428H226.109L227.833 7.16284L229.903 7.16284L227.029 3.65606ZM226.143 25.3291C226.937 25.3291 227.569 24.6852 227.569 23.9034C227.569 23.11 226.937 22.4777 226.143 22.4777C225.35 22.4777 224.706 23.11 224.706 23.9034C224.706 24.6852 225.35 25.3291 226.143 25.3291Z" fill="white"/>
<path d="M0.168945 56C0.168945 54.3432 1.51209 53 3.16895 53H13.1689C14.8258 53 16.1689 54.3431 16.1689 56V575H0.168945V56Z" fill="url(#paint0_linear)"/>
<path fill-rule="evenodd" clip-rule="evenodd" d="M74 137H25V136H74V137Z" fill="#888888"/>
<path d="M118.718 447.282V437.4H122.204V435.874H113.452V437.4H116.947V447.282H118.718Z" fill="#C5A57F"/>
<path d="M123.508 447.282H125.216V442.475C125.216 441.163 125.991 440.293 127.256 440.293C128.457 440.293 129.074 441.028 129.074 442.254V447.282H130.79V441.922C130.79 440.04 129.699 438.823 127.872 438.823C126.607 438.823 125.698 439.384 125.24 440.357H125.2V435.874H123.508V447.282Z" fill="#C5A57F"/>
<path d="M134.893 436.111C135.217 435.969 135.414 435.929 135.699 435.929C136.118 435.929 136.434 436.198 136.434 436.538C136.434 436.941 136.213 437.202 135.699 437.392L136.252 438.119C137.083 437.795 137.604 437.155 137.604 436.467C137.604 435.574 136.972 434.989 135.992 434.989C135.573 434.989 135.225 435.06 134.893 435.194V436.111ZM137.952 444.839C137.723 445.566 137.003 446.057 136.031 446.057C134.663 446.057 133.794 445.1 133.794 443.653V443.55H139.668V442.965C139.668 440.443 138.229 438.815 135.92 438.815C133.572 438.815 132.07 440.554 132.07 443.163C132.07 445.788 133.549 447.44 135.992 447.44C137.897 447.44 139.336 446.357 139.573 444.839H137.952ZM135.92 440.19C137.114 440.19 137.921 441.084 137.96 442.357H133.802C133.889 441.1 134.727 440.19 135.92 440.19Z" fill="#C5A57F"/>
<path d="M149.091 447.282V437.4H152.578V435.874H143.826V437.4H147.32V447.282H149.091Z" fill="#C5A57F"/>
<path d="M154.024 435.874V447.282H155.795V443.384H158.246C160.483 443.384 162.057 441.851 162.057 439.621C162.057 437.4 160.515 435.874 158.301 435.874H154.024ZM155.795 437.368H157.835C159.369 437.368 160.246 438.19 160.246 439.629C160.246 441.068 159.369 441.898 157.827 441.898H155.795V437.368Z" fill="#C5A57F"/>
<path d="M171.472 447.282C173.899 447.282 175.362 446.064 175.362 444.056C175.362 442.538 174.318 441.44 172.769 441.266V441.202C173.907 441.013 174.801 439.93 174.801 438.72C174.801 436.997 173.473 435.874 171.449 435.874H166.895V447.282H171.472ZM168.666 437.321H171.022C172.303 437.321 173.03 437.906 173.03 438.965C173.03 440.096 172.184 440.728 170.65 440.728H168.666V437.321ZM168.666 445.835V442.08H171.006C172.682 442.08 173.552 442.712 173.552 443.946C173.552 445.179 172.706 445.835 171.109 445.835H168.666Z" fill="#C5A57F"/>
<path d="M179.117 447.424C180.208 447.424 181.26 446.839 181.742 445.914H181.781V447.282H183.418V441.55C183.418 439.882 182.129 438.815 180.113 438.815C178.058 438.815 176.777 439.922 176.682 441.424H178.295C178.445 440.681 179.062 440.206 180.05 440.206C181.094 440.206 181.718 440.76 181.718 441.685V442.325L179.441 442.459C177.465 442.57 176.35 443.463 176.35 444.918C176.35 446.412 177.489 447.424 179.117 447.424ZM179.592 446.072C178.675 446.072 178.074 445.598 178.074 444.871C178.074 444.159 178.651 443.709 179.671 443.637L181.718 443.511V444.167C181.718 445.25 180.785 446.072 179.592 446.072Z" fill="#C5A57F"/>
<path d="M185.078 447.282H186.786V442.436C186.786 441.147 187.561 440.293 188.762 440.293C189.948 440.293 190.533 440.981 190.533 442.23V447.282H192.249V441.898C192.249 439.993 191.197 438.823 189.363 438.823C188.082 438.823 187.197 439.408 186.746 440.357H186.707V438.965H185.078V447.282Z" fill="#C5A57F"/>
<path d="M195.688 442.531H195.672V435.874H193.964V447.282H195.672V444.294L196.383 443.59L199.206 447.282H201.19L197.609 442.546L201.056 438.965H199.048L195.688 442.531Z" fill="#C5A57F"/>
<path d="M119.279 468.87L123.35 457.462H121.461L118.346 466.878H118.299L115.192 457.462H113.271L117.342 468.87H119.279Z" fill="#C5A57F"/>
<path d="M125.113 459.209C125.659 459.209 126.094 458.766 126.094 458.229C126.094 457.683 125.659 457.248 125.113 457.248C124.568 457.248 124.125 457.683 124.125 458.229C124.125 458.766 124.568 459.209 125.113 459.209ZM124.259 468.87H125.967V460.553H124.259V468.87Z" fill="#C5A57F"/>
<path d="M127.564 462.909C127.564 464.118 128.347 464.877 129.928 465.241L131.28 465.557C132.189 465.763 132.497 466.079 132.497 466.617C132.497 467.297 131.865 467.723 130.837 467.723C129.793 467.723 129.201 467.297 129.042 466.427H127.351C127.509 468.008 128.758 469.028 130.837 469.028C132.798 469.028 134.213 467.984 134.213 466.466C134.213 465.265 133.564 464.601 131.865 464.205L130.513 463.897C129.612 463.692 129.232 463.336 129.232 462.814C129.232 462.15 129.849 461.699 130.774 461.699C131.73 461.699 132.323 462.205 132.418 463.012H134.023C133.968 461.478 132.711 460.403 130.774 460.403C128.861 460.403 127.564 461.423 127.564 462.909Z" fill="#C5A57F"/>
<path d="M137.976 469.012C139.067 469.012 140.118 468.427 140.601 467.502H140.64V468.87H142.277V463.138C142.277 461.47 140.988 460.403 138.972 460.403C136.917 460.403 135.636 461.51 135.541 463.012H137.154C137.304 462.269 137.921 461.794 138.909 461.794C139.952 461.794 140.577 462.348 140.577 463.273V463.913L138.3 464.047C136.324 464.158 135.209 465.051 135.209 466.506C135.209 468 136.347 469.012 137.976 469.012ZM138.45 467.66C137.533 467.66 136.932 467.186 136.932 466.459C136.932 465.747 137.509 465.296 138.529 465.225L140.577 465.099V465.755C140.577 466.838 139.644 467.66 138.45 467.66Z" fill="#C5A57F"/>
<path d="M146.917 465.739C147.028 467.771 148.743 469.06 151.321 469.06C153.977 469.06 155.669 467.708 155.669 465.557C155.669 463.897 154.689 462.941 152.301 462.435L151.052 462.174C149.574 461.857 148.989 461.304 148.989 460.474C148.989 459.43 149.969 458.782 151.305 458.782C152.688 458.782 153.629 459.486 153.74 460.632H155.455C155.4 458.64 153.748 457.272 151.329 457.272C148.902 457.272 147.186 458.616 147.186 460.569C147.186 462.213 148.222 463.273 150.506 463.755L151.748 464.016C153.273 464.348 153.874 464.901 153.874 465.787C153.874 466.806 152.839 467.55 151.392 467.55C149.874 467.55 148.799 466.87 148.641 465.739H146.917Z" fill="#C5A57F"/>
<path d="M157.969 459.209C158.515 459.209 158.95 458.766 158.95 458.229C158.95 457.683 158.515 457.248 157.969 457.248C157.424 457.248 156.981 457.683 156.981 458.229C156.981 458.766 157.424 459.209 157.969 459.209ZM157.116 468.87H158.823V460.553H157.116V468.87Z" fill="#C5A57F"/>
<path d="M164.128 472C166.5 472 168.033 470.704 168.033 468.72V460.553H166.373V461.976H166.342C165.836 461.012 164.871 460.419 163.693 460.419C161.559 460.419 160.199 462.063 160.199 464.68C160.199 467.273 161.567 468.901 163.654 468.901C164.84 468.901 165.82 468.309 166.286 467.407H166.318V468.775C166.318 469.913 165.527 470.672 164.191 470.672C163.219 470.672 162.46 470.214 162.215 469.518H160.499C160.713 470.957 162.167 472 164.128 472ZM164.112 467.486C162.8 467.486 161.946 466.427 161.946 464.688C161.946 462.956 162.8 461.857 164.112 461.857C165.448 461.857 166.326 462.98 166.326 464.688C166.326 466.403 165.448 467.486 164.112 467.486Z" fill="#C5A57F"/>
<path d="M169.725 468.87H171.433V464.024C171.433 462.735 172.208 461.881 173.409 461.881C174.595 461.881 175.18 462.569 175.18 463.818V468.87H176.896V463.486C176.896 461.581 175.844 460.411 174.01 460.411C172.729 460.411 171.844 460.996 171.393 461.944H171.354V460.553H169.725V468.87Z" fill="#C5A57F"/>
<path d="M180.983 469.012C182.074 469.012 183.125 468.427 183.608 467.502H183.647V468.87H185.284V463.138C185.284 461.47 183.995 460.403 181.979 460.403C179.924 460.403 178.643 461.51 178.548 463.012H180.161C180.311 462.269 180.928 461.794 181.916 461.794C182.959 461.794 183.584 462.348 183.584 463.273V463.913L181.307 464.047C179.331 464.158 178.216 465.051 178.216 466.506C178.216 468 179.354 469.012 180.983 469.012ZM181.457 467.66C180.54 467.66 179.939 467.186 179.939 466.459C179.939 465.747 180.517 465.296 181.536 465.225L183.584 465.099V465.755C183.584 466.838 182.651 467.66 181.457 467.66Z" fill="#C5A57F"/>
<path d="M187.442 458.584V460.553H186.232V461.905H187.442V466.68C187.442 468.285 188.098 468.925 189.782 468.925C190.162 468.925 190.541 468.894 190.731 468.846V467.494C190.62 467.518 190.343 467.534 190.169 467.534C189.474 467.534 189.158 467.21 189.158 466.49V461.905H190.739V460.553H189.158V458.584H187.442Z" fill="#C5A57F"/>
<path d="M199.277 460.553H197.569V465.399C197.569 466.696 196.826 467.55 195.593 467.55C194.415 467.55 193.814 466.87 193.814 465.605V460.553H192.106V465.937C192.106 467.842 193.213 469.02 195.024 469.02C196.296 469.02 197.142 468.459 197.601 467.463H197.64V468.87H199.277V460.553Z" fill="#C5A57F"/>
<path d="M200.969 468.87H202.676V463.889C202.676 462.711 203.356 461.976 204.455 461.976C204.787 461.976 205.088 462.016 205.222 462.071V460.482C205.095 460.458 204.882 460.419 204.637 460.419C203.657 460.419 202.913 460.996 202.637 461.968H202.597V460.553H200.969V468.87Z" fill="#C5A57F"/>
<path d="M211.428 466.427C211.199 467.154 210.479 467.644 209.507 467.644C208.139 467.644 207.27 466.688 207.27 465.241V465.138H213.143V464.553C213.143 462.031 211.705 460.403 209.396 460.403C207.048 460.403 205.546 462.142 205.546 464.751C205.546 467.376 207.024 469.028 209.467 469.028C211.373 469.028 212.811 467.945 213.049 466.427H211.428ZM209.396 461.778C210.59 461.778 211.396 462.672 211.436 463.945H207.277C207.364 462.688 208.202 461.778 209.396 461.778Z" fill="#C5A57F"/>
<path d="M125.5 416.528C132.277 416.528 136.262 410.844 136.262 401.86C136.262 392.934 132.238 387.289 125.5 387.289C118.762 387.289 114.699 392.953 114.699 401.879C114.699 410.864 118.703 416.528 125.5 416.528ZM125.5 412.856C121.418 412.856 119.133 408.696 119.133 401.879C119.133 395.16 121.477 390.961 125.5 390.961C129.523 390.961 131.848 395.141 131.848 401.879C131.848 408.715 129.562 412.856 125.5 412.856Z" fill="white"/>
<path d="M142.355 416.215C143.781 416.215 144.914 415.082 144.914 413.656C144.914 412.231 143.781 411.098 142.355 411.098C140.93 411.098 139.797 412.231 139.797 413.656C139.797 415.082 140.93 416.215 142.355 416.215Z" fill="white"/>
<path d="M159.465 416.528C166.516 416.528 170.695 410.942 170.695 401.508C170.695 390.981 165.051 387.27 159.602 387.27C153.645 387.27 149.309 391.371 149.309 397.035C149.309 402.446 153.352 406.313 158.664 406.313C162.297 406.313 165.266 404.477 166.398 401.723H166.477C166.438 408.676 164.094 412.895 159.504 412.895C156.77 412.895 154.738 411.625 154.016 409.242H149.621C150.422 413.617 154.367 416.528 159.465 416.528ZM159.602 402.758C156.184 402.758 153.645 400.297 153.645 396.879C153.645 393.598 156.301 391 159.66 391C163.02 391 165.637 393.617 165.637 396.977C165.637 400.317 163.059 402.758 159.602 402.758Z" fill="white"/>
<path d="M184.602 416.528C190.695 416.528 194.953 412.524 194.953 406.762C194.953 401.371 191.066 397.465 185.676 397.465C182.902 397.465 180.559 398.539 179.289 400.434H179.191L180.051 391.508H193.312V387.817H176.516L175.129 404.067H178.957C180.148 401.996 182.16 400.922 184.68 400.922C188.195 400.922 190.676 403.403 190.676 406.879C190.676 410.395 188.215 412.875 184.641 412.875C181.496 412.875 179.113 410.961 178.801 408.168H174.621C174.875 413.09 178.977 416.528 184.602 416.528Z" fill="white"/>
<path d="M203.43 401.235C207.18 401.235 209.641 398.5 209.641 394.34C209.641 390.141 207.16 387.446 203.43 387.446C199.699 387.446 197.199 390.141 197.199 394.34C197.199 398.52 199.699 401.235 203.43 401.235ZM203.43 398.559C201.574 398.559 200.324 396.977 200.324 394.34C200.324 391.703 201.574 390.141 203.43 390.141C205.305 390.141 206.535 391.703 206.535 394.34C206.535 396.977 205.285 398.559 203.43 398.559ZM204.68 416L224.094 387.817H220.559L201.105 416H204.68ZM221.789 416.352C225.52 416.352 228 413.617 228 409.457C228 405.258 225.52 402.563 221.789 402.563C218.059 402.563 215.559 405.258 215.559 409.457C215.559 413.637 218.039 416.352 221.789 416.352ZM221.789 413.676C219.934 413.676 218.664 412.094 218.664 409.457C218.664 406.821 219.934 405.258 221.789 405.258C223.645 405.258 224.895 406.821 224.895 409.457C224.895 412.094 223.645 413.676 221.789 413.676Z" fill="white"/>
<path fill-rule="evenodd" clip-rule="evenodd" d="M74 402H25V401H74V402Z" fill="#888888"/>
<defs>
<linearGradient id="paint0_linear" x1="8.16895" y1="53" x2="8.16895" y2="575" gradientUnits="userSpaceOnUse">
<stop stop-color="#C5A57F"/>
<stop offset="1" stop-color="#C5A57F" stop-opacity="0.4"/>
</linearGradient>
</defs>
</svg>
